M48
; DRILL file {KiCad 7.0.2} date Mon May 29 18:08:29 2023
; FORMAT={-:-/ absolute / inch / decimal}
; #@! TF.CreationDate,2023-05-29T18:08:29-04:00
; #@! TF.GenerationSoftware,Kicad,Pcbnew,7.0.2
; #@! TF.FileFunction,MixedPlating,1,2
FMAT,2
INCH
; #@! TA.AperFunction,Plated,PTH,ViaDrill
T1C0.0157
; #@! TA.AperFunction,Plated,PTH,ComponentDrill
T2C0.0295
; #@! TA.AperFunction,Plated,PTH,ComponentDrill
T3C0.0394
; #@! TA.AperFunction,Plated,PTH,ViaDrill
T4C0.0472
; #@! TA.AperFunction,Plated,PTH,ViaDrill
T5C0.1260
%
G90
G05
T1
X4.3504Y-2.8346
X4.3504Y-3.7008
X4.4094Y-5.6713
X4.5079Y-5.6496
X4.8819Y-4.9213
X5.2953Y-5.6102
X5.4331Y-5.2736
X5.5315Y-5.6693
X5.6299Y-3.3661
X5.6299Y-3.4449
X5.6299Y-5.6693
X5.6693Y-2.4606
X5.6693Y-2.5394
X5.6693Y-2.6969
X5.6693Y-3.0118
X5.6693Y-3.5827
X5.6693Y-3.878
X5.7283Y-5.5118
X5.7283Y-5.5709
X5.7283Y-5.6299
X5.748Y-4.0157
X5.748Y-4.0945
X5.7579Y-3.1102
X5.7579Y-3.189
X5.9547Y-3.1102
X5.9547Y-3.189
X5.9646Y-4.0157
X5.9646Y-4.0945
X6.122Y-5.1181
X6.2008Y-5.1181
X6.2008Y-5.4693
X6.2402Y-2.6339
X6.2402Y-3.0492
X6.2402Y-3.5236
X6.2402Y-3.937
X6.3406Y-5.6496
X6.437Y-3.248
X6.437Y-3.5827
X6.437Y-5.4724
X6.4961Y-3.0512
X6.4961Y-3.937
X6.497Y-5.6102
X6.5551Y-3.1496
X6.5551Y-4.0354
X6.6535Y-2.9134
X6.6535Y-3.7992
X6.7323Y-2.6969
X6.7323Y-3.5827
X6.8307Y-2.6378
X6.8307Y-3.5236
X6.8317Y-5.3543
X6.9685Y-3.189
X7.1063Y-2.8543
X7.1063Y-3.5236
X7.2835Y-2.7953
X7.2835Y-3.5827
X7.3228Y-3.189
X7.3228Y-3.7205
X7.3435Y-5.6102
X7.4409Y-4.0354
T2
X4.0551Y-2.4016
X4.0551Y-2.4803
X4.0551Y-2.5591
X4.0551Y-2.6378
X4.0551Y-2.7165
X4.0551Y-2.7953
X4.0551Y-2.874
X4.0551Y-2.9528
X4.0551Y-3.248
X4.0551Y-3.3268
X4.0551Y-3.4055
X4.0551Y-3.4843
X4.0551Y-3.563
X4.0551Y-3.6417
X4.0551Y-3.7205
X4.0551Y-3.7992
X6.4961Y-2.5591
X6.4961Y-3.4665
X6.5748Y-2.5591
X6.5748Y-3.4665
X7.0669Y-3.7776
X7.0669Y-4.0551
X7.1457Y-3.7776
X7.1457Y-4.0551
X7.6969Y-2.9921
X7.6969Y-3.0709
X7.6969Y-3.1496
X7.6969Y-3.2283
X7.6969Y-3.3071
X7.6969Y-3.3858
X7.6969Y-3.4646
X7.6969Y-3.5433
X7.6969Y-3.9567
X7.6969Y-4.0354
X7.6969Y-4.1142
X7.6969Y-4.1929
X7.6969Y-4.2717
X7.6969Y-4.3504
X7.6969Y-4.4291
X7.6969Y-4.5079
T3
X4.3701Y-5.1181
X6.8701Y-3.8335
X6.8701Y-3.9335
X6.8701Y-4.0335
X6.9173Y-3.4055
X6.9291Y-2.9528
X7.0472Y-4.4291
X7.4803Y-2.9921
X7.4803Y-3.3661
X7.4803Y-3.6811
X7.4803Y-3.9567
T4
X6.0862Y-5.4959
T5
X4.1339Y-2.1654
X4.1339Y-5.7087
X7.6772Y-2.1654
X7.6772Y-5.7087
T0
M30
