%TF.GenerationSoftware,KiCad,Pcbnew,7.0.2*%
%TF.CreationDate,2023-05-29T18:08:28-04:00*%
%TF.ProjectId,amplifier,616d706c-6966-4696-9572-2e6b69636164,rev?*%
%TF.SameCoordinates,Original*%
%TF.FileFunction,Soldermask,Top*%
%TF.FilePolarity,Negative*%
%FSLAX46Y46*%
G04 Gerber Fmt 4.6, Leading zero omitted, Abs format (unit mm)*
G04 Created by KiCad (PCBNEW 7.0.2) date 2023-05-29 18:08:28*
%MOMM*%
%LPD*%
G01*
G04 APERTURE LIST*
G04 Aperture macros list*
%AMRoundRect*
0 Rectangle with rounded corners*
0 $1 Rounding radius*
0 $2 $3 $4 $5 $6 $7 $8 $9 X,Y pos of 4 corners*
0 Add a 4 corners polygon primitive as box body*
4,1,4,$2,$3,$4,$5,$6,$7,$8,$9,$2,$3,0*
0 Add four circle primitives for the rounded corners*
1,1,$1+$1,$2,$3*
1,1,$1+$1,$4,$5*
1,1,$1+$1,$6,$7*
1,1,$1+$1,$8,$9*
0 Add four rect primitives between the rounded corners*
20,1,$1+$1,$2,$3,$4,$5,0*
20,1,$1+$1,$4,$5,$6,$7,0*
20,1,$1+$1,$6,$7,$8,$9,0*
20,1,$1+$1,$8,$9,$2,$3,0*%
G04 Aperture macros list end*
%ADD10C,3.075000*%
%ADD11RoundRect,0.225000X0.250000X-0.225000X0.250000X0.225000X-0.250000X0.225000X-0.250000X-0.225000X0*%
%ADD12RoundRect,0.200000X0.275000X-0.200000X0.275000X0.200000X-0.275000X0.200000X-0.275000X-0.200000X0*%
%ADD13RoundRect,0.200000X0.200000X0.275000X-0.200000X0.275000X-0.200000X-0.275000X0.200000X-0.275000X0*%
%ADD14RoundRect,0.225000X-0.250000X0.225000X-0.250000X-0.225000X0.250000X-0.225000X0.250000X0.225000X0*%
%ADD15RoundRect,0.200000X-0.200000X-0.275000X0.200000X-0.275000X0.200000X0.275000X-0.200000X0.275000X0*%
%ADD16RoundRect,0.250000X-1.750000X-1.000000X1.750000X-1.000000X1.750000X1.000000X-1.750000X1.000000X0*%
%ADD17RoundRect,0.150000X-0.587500X-0.150000X0.587500X-0.150000X0.587500X0.150000X-0.587500X0.150000X0*%
%ADD18RoundRect,0.225000X-0.375000X0.225000X-0.375000X-0.225000X0.375000X-0.225000X0.375000X0.225000X0*%
%ADD19RoundRect,0.200000X-0.275000X0.200000X-0.275000X-0.200000X0.275000X-0.200000X0.275000X0.200000X0*%
%ADD20RoundRect,0.250000X1.750000X1.000000X-1.750000X1.000000X-1.750000X-1.000000X1.750000X-1.000000X0*%
%ADD21RoundRect,0.250000X0.650000X-0.325000X0.650000X0.325000X-0.650000X0.325000X-0.650000X-0.325000X0*%
%ADD22RoundRect,0.250000X-0.325000X-0.650000X0.325000X-0.650000X0.325000X0.650000X-0.325000X0.650000X0*%
%ADD23RoundRect,0.150000X-0.825000X-0.150000X0.825000X-0.150000X0.825000X0.150000X-0.825000X0.150000X0*%
%ADD24RoundRect,0.250000X0.350000X0.625000X-0.350000X0.625000X-0.350000X-0.625000X0.350000X-0.625000X0*%
%ADD25O,1.200000X1.750000*%
%ADD26RoundRect,0.150000X-0.150000X0.587500X-0.150000X-0.587500X0.150000X-0.587500X0.150000X0.587500X0*%
%ADD27RoundRect,0.150000X0.150000X-0.587500X0.150000X0.587500X-0.150000X0.587500X-0.150000X-0.587500X0*%
%ADD28RoundRect,0.250000X-0.625000X0.350000X-0.625000X-0.350000X0.625000X-0.350000X0.625000X0.350000X0*%
%ADD29O,1.750000X1.200000*%
%ADD30RoundRect,0.225000X0.225000X0.250000X-0.225000X0.250000X-0.225000X-0.250000X0.225000X-0.250000X0*%
%ADD31RoundRect,0.150000X-0.150000X0.825000X-0.150000X-0.825000X0.150000X-0.825000X0.150000X0.825000X0*%
%ADD32RoundRect,0.225000X-0.225000X-0.250000X0.225000X-0.250000X0.225000X0.250000X-0.225000X0.250000X0*%
%ADD33RoundRect,0.250000X0.625000X-0.350000X0.625000X0.350000X-0.625000X0.350000X-0.625000X-0.350000X0*%
%ADD34C,2.000000*%
%ADD35RoundRect,0.250000X0.950000X0.500000X-0.950000X0.500000X-0.950000X-0.500000X0.950000X-0.500000X0*%
%ADD36RoundRect,0.250000X0.275000X0.500000X-0.275000X0.500000X-0.275000X-0.500000X0.275000X-0.500000X0*%
%ADD37RoundRect,0.250000X-0.250000X-0.475000X0.250000X-0.475000X0.250000X0.475000X-0.250000X0.475000X0*%
%ADD38RoundRect,0.062500X0.362500X0.062500X-0.362500X0.062500X-0.362500X-0.062500X0.362500X-0.062500X0*%
%ADD39R,1.650000X2.380000*%
%ADD40R,1.500000X2.400000*%
%ADD41RoundRect,0.250000X0.475000X-0.250000X0.475000X0.250000X-0.475000X0.250000X-0.475000X-0.250000X0*%
%ADD42RoundRect,0.250000X1.000000X-1.750000X1.000000X1.750000X-1.000000X1.750000X-1.000000X-1.750000X0*%
%ADD43R,1.500000X2.000000*%
%ADD44R,3.800000X2.000000*%
%ADD45RoundRect,0.250000X0.262500X0.450000X-0.262500X0.450000X-0.262500X-0.450000X0.262500X-0.450000X0*%
%ADD46R,1.700000X1.700000*%
%ADD47O,1.700000X1.700000*%
%ADD48RoundRect,0.250000X-0.350000X-0.625000X0.350000X-0.625000X0.350000X0.625000X-0.350000X0.625000X0*%
G04 APERTURE END LIST*
D10*
X106537500Y-145000000D02*
G75*
G03*
X106537500Y-145000000I-1537500J0D01*
G01*
X106537500Y-55000000D02*
G75*
G03*
X106537500Y-55000000I-1537500J0D01*
G01*
X196537500Y-55000000D02*
G75*
G03*
X196537500Y-55000000I-1537500J0D01*
G01*
X196537500Y-145000000D02*
G75*
G03*
X196537500Y-145000000I-1537500J0D01*
G01*
D11*
%TO.C,C31*%
X155500000Y-132550000D03*
X155500000Y-131000000D03*
%TD*%
D12*
%TO.C,R6*%
X144000000Y-97650000D03*
X144000000Y-96000000D03*
%TD*%
D13*
%TO.C,R21*%
X184150000Y-87000000D03*
X182500000Y-87000000D03*
%TD*%
D14*
%TO.C,C24*%
X177000000Y-78500000D03*
X177000000Y-80050000D03*
%TD*%
D15*
%TO.C,R11*%
X154350000Y-71000000D03*
X156000000Y-71000000D03*
%TD*%
D16*
%TO.C,C3*%
X129000000Y-77500000D03*
X137000000Y-77500000D03*
%TD*%
D15*
%TO.C,FB1*%
X150850000Y-74000000D03*
X152500000Y-74000000D03*
%TD*%
D11*
%TO.C,C11*%
X158500000Y-95550000D03*
X158500000Y-94000000D03*
%TD*%
%TO.C,C34*%
X140500000Y-146550000D03*
X140500000Y-145000000D03*
%TD*%
D17*
%TO.C,Q1*%
X186000000Y-95500000D03*
X186000000Y-97400000D03*
X187875000Y-96450000D03*
%TD*%
D16*
%TO.C,C5*%
X129000000Y-100500000D03*
X137000000Y-100500000D03*
%TD*%
D18*
%TO.C,D6*%
X118000000Y-143200000D03*
X118000000Y-146500000D03*
%TD*%
D19*
%TO.C,R26*%
X157500000Y-134350000D03*
X157500000Y-136000000D03*
%TD*%
%TO.C,R28*%
X138000000Y-134800000D03*
X138000000Y-136450000D03*
%TD*%
D20*
%TO.C,C1*%
X121000000Y-72000000D03*
X113000000Y-72000000D03*
%TD*%
D21*
%TO.C,C25*%
X186525000Y-146500000D03*
X186525000Y-143550000D03*
%TD*%
D15*
%TO.C,R12*%
X154350000Y-96000000D03*
X156000000Y-96000000D03*
%TD*%
D20*
%TO.C,C2*%
X121000000Y-94000000D03*
X113000000Y-94000000D03*
%TD*%
D22*
%TO.C,C20*%
X162500000Y-102675000D03*
X165450000Y-102675000D03*
%TD*%
D11*
%TO.C,C10*%
X158500000Y-99050000D03*
X158500000Y-97500000D03*
%TD*%
%TO.C,C23*%
X185950000Y-83500000D03*
X185950000Y-81950000D03*
%TD*%
%TO.C,C39*%
X112000000Y-146550000D03*
X112000000Y-145000000D03*
%TD*%
%TO.C,C8*%
X158500000Y-73000000D03*
X158500000Y-71450000D03*
%TD*%
D23*
%TO.C,U2*%
X162525000Y-92770000D03*
X162525000Y-94040000D03*
X162525000Y-95310000D03*
X162525000Y-96580000D03*
X167475000Y-96580000D03*
X167475000Y-95310000D03*
X167475000Y-94040000D03*
X167475000Y-92770000D03*
%TD*%
D24*
%TO.C,J5*%
X167000000Y-65000000D03*
D25*
X165000000Y-65000000D03*
%TD*%
D26*
%TO.C,D4*%
X148450000Y-91625000D03*
X146550000Y-91625000D03*
X147500000Y-93500000D03*
%TD*%
D11*
%TO.C,C32*%
X143000000Y-146550000D03*
X143000000Y-145000000D03*
%TD*%
D27*
%TO.C,D1*%
X146550000Y-75875000D03*
X148450000Y-75875000D03*
X147500000Y-74000000D03*
%TD*%
D28*
%TO.C,J4*%
X195500000Y-100500000D03*
D29*
X195500000Y-102500000D03*
X195500000Y-104500000D03*
X195500000Y-106500000D03*
X195500000Y-108500000D03*
X195500000Y-110500000D03*
X195500000Y-112500000D03*
X195500000Y-114500000D03*
%TD*%
D30*
%TO.C,C29*%
X148000000Y-141500000D03*
X146450000Y-141500000D03*
%TD*%
D12*
%TO.C,R2*%
X125000000Y-100500000D03*
X125000000Y-98850000D03*
%TD*%
D28*
%TO.C,J7*%
X195500000Y-76000000D03*
D29*
X195500000Y-78000000D03*
X195500000Y-80000000D03*
X195500000Y-82000000D03*
X195500000Y-84000000D03*
X195500000Y-86000000D03*
X195500000Y-88000000D03*
X195500000Y-90000000D03*
%TD*%
D31*
%TO.C,U3*%
X183405000Y-78525000D03*
X182135000Y-78525000D03*
X180865000Y-78525000D03*
X179595000Y-78525000D03*
X179595000Y-83475000D03*
X180865000Y-83475000D03*
X182135000Y-83475000D03*
X183405000Y-83475000D03*
%TD*%
D11*
%TO.C,C35*%
X138000000Y-140000000D03*
X138000000Y-138450000D03*
%TD*%
D32*
%TO.C,C40*%
X182500000Y-73000000D03*
X184050000Y-73000000D03*
%TD*%
D22*
%TO.C,C19*%
X162500000Y-80000000D03*
X165450000Y-80000000D03*
%TD*%
D33*
%TO.C,J1*%
X103000000Y-75000000D03*
D29*
X103000000Y-73000000D03*
X103000000Y-71000000D03*
X103000000Y-69000000D03*
X103000000Y-67000000D03*
X103000000Y-65000000D03*
X103000000Y-63000000D03*
X103000000Y-61000000D03*
%TD*%
D34*
%TO.C,TP5*%
X179000000Y-112500000D03*
%TD*%
D35*
%TO.C,D5*%
X147500000Y-146500000D03*
D36*
X149875000Y-146500000D03*
%TD*%
D27*
%TO.C,D2*%
X146550000Y-97937500D03*
X148450000Y-97937500D03*
X147500000Y-96062500D03*
%TD*%
D15*
%TO.C,R7*%
X187350000Y-110500000D03*
X189000000Y-110500000D03*
%TD*%
D11*
%TO.C,C7*%
X158500000Y-76550000D03*
X158500000Y-75000000D03*
%TD*%
D19*
%TO.C,R8*%
X144000000Y-69350000D03*
X144000000Y-71000000D03*
%TD*%
D11*
%TO.C,C14*%
X171000000Y-93675000D03*
X171000000Y-92125000D03*
%TD*%
D24*
%TO.C,J6*%
X167000000Y-88050000D03*
D25*
X165000000Y-88050000D03*
%TD*%
D26*
%TO.C,D3*%
X148450000Y-69125000D03*
X146550000Y-69125000D03*
X147500000Y-71000000D03*
%TD*%
D37*
%TO.C,C33*%
X160500000Y-139000000D03*
X162400000Y-139000000D03*
%TD*%
D21*
%TO.C,C27*%
X165025000Y-146475000D03*
X165025000Y-143525000D03*
%TD*%
D38*
%TO.C,U4*%
X156040000Y-140595000D03*
X156040000Y-140095000D03*
X156040000Y-139595000D03*
X156040000Y-139095000D03*
X156040000Y-138595000D03*
X153140000Y-138595000D03*
X153140000Y-139095000D03*
X153140000Y-139595000D03*
X153140000Y-140095000D03*
X153140000Y-140595000D03*
D39*
X154590000Y-139595000D03*
%TD*%
D15*
%TO.C,FB4*%
X150850000Y-93500000D03*
X152500000Y-93500000D03*
%TD*%
D34*
%TO.C,TP1*%
X176000000Y-75000000D03*
%TD*%
D21*
%TO.C,C18*%
X173500000Y-93675000D03*
X173500000Y-90725000D03*
%TD*%
D19*
%TO.C,R15*%
X161000000Y-87850000D03*
X161000000Y-89500000D03*
%TD*%
D40*
%TO.C,L2*%
X156350000Y-146500000D03*
X152650000Y-146500000D03*
%TD*%
D34*
%TO.C,TP8*%
X111000000Y-130000000D03*
%TD*%
D13*
%TO.C,R20*%
X184150000Y-75000000D03*
X182500000Y-75000000D03*
%TD*%
D41*
%TO.C,C38*%
X114500000Y-146500000D03*
X114500000Y-144600000D03*
%TD*%
D42*
%TO.C,C26*%
X173525000Y-146500000D03*
X173525000Y-138500000D03*
%TD*%
D34*
%TO.C,TP2*%
X190000000Y-76000000D03*
%TD*%
D19*
%TO.C,R17*%
X180500000Y-87000000D03*
X180500000Y-88650000D03*
%TD*%
D16*
%TO.C,C4*%
X129000000Y-66000000D03*
X137000000Y-66000000D03*
%TD*%
D15*
%TO.C,FB2*%
X150850000Y-71000000D03*
X152500000Y-71000000D03*
%TD*%
D43*
%TO.C,Q3*%
X121700000Y-146300000D03*
X124000000Y-146300000D03*
D44*
X124000000Y-140000000D03*
D43*
X126300000Y-146300000D03*
%TD*%
D19*
%TO.C,R3*%
X125000000Y-66000000D03*
X125000000Y-67650000D03*
%TD*%
D11*
%TO.C,C12*%
X158500000Y-92000000D03*
X158500000Y-90450000D03*
%TD*%
D32*
%TO.C,C15*%
X162500000Y-77500000D03*
X164050000Y-77500000D03*
%TD*%
D34*
%TO.C,TP4*%
X190000000Y-85500000D03*
%TD*%
D19*
%TO.C,R14*%
X161000000Y-65000000D03*
X161000000Y-66650000D03*
%TD*%
D15*
%TO.C,R25*%
X146350000Y-140000000D03*
X148000000Y-140000000D03*
%TD*%
D19*
%TO.C,R9*%
X144000000Y-91850000D03*
X144000000Y-93500000D03*
%TD*%
D34*
%TO.C,TP3*%
X175700000Y-86500000D03*
%TD*%
%TO.C,TP7*%
X190000000Y-100500000D03*
%TD*%
D11*
%TO.C,C30*%
X157500000Y-132550000D03*
X157500000Y-131000000D03*
%TD*%
D14*
%TO.C,C21*%
X178500000Y-73450000D03*
X178500000Y-75000000D03*
%TD*%
D12*
%TO.C,R5*%
X144000000Y-75650000D03*
X144000000Y-74000000D03*
%TD*%
D17*
%TO.C,Q2*%
X186000000Y-102500000D03*
X186000000Y-104400000D03*
X187875000Y-103450000D03*
%TD*%
D19*
%TO.C,R29*%
X129500000Y-144850000D03*
X129500000Y-146500000D03*
%TD*%
D15*
%TO.C,FB3*%
X150850000Y-96000000D03*
X152500000Y-96000000D03*
%TD*%
D19*
%TO.C,R4*%
X125000000Y-89000000D03*
X125000000Y-90650000D03*
%TD*%
D15*
%TO.C,R19*%
X182500000Y-91000000D03*
X184150000Y-91000000D03*
%TD*%
%TO.C,R18*%
X182500000Y-71000000D03*
X184150000Y-71000000D03*
%TD*%
D11*
%TO.C,C22*%
X178500000Y-88550000D03*
X178500000Y-87000000D03*
%TD*%
D45*
%TO.C,L1*%
X183850000Y-146500000D03*
X182025000Y-146500000D03*
%TD*%
D13*
%TO.C,R23*%
X187500000Y-87000000D03*
X185850000Y-87000000D03*
%TD*%
D37*
%TO.C,C28*%
X158050000Y-143500000D03*
X159950000Y-143500000D03*
%TD*%
D21*
%TO.C,C36*%
X134500000Y-146500000D03*
X134500000Y-143550000D03*
%TD*%
D15*
%TO.C,R24*%
X146350000Y-143000000D03*
X148000000Y-143000000D03*
%TD*%
D12*
%TO.C,R1*%
X125000000Y-77500000D03*
X125000000Y-75850000D03*
%TD*%
D13*
%TO.C,R22*%
X187500000Y-75000000D03*
X185850000Y-75000000D03*
%TD*%
D16*
%TO.C,C6*%
X129000000Y-89000000D03*
X137000000Y-89000000D03*
%TD*%
D15*
%TO.C,R13*%
X154350000Y-93500000D03*
X156000000Y-93500000D03*
%TD*%
D11*
%TO.C,C13*%
X171000000Y-71000000D03*
X171000000Y-69450000D03*
%TD*%
D15*
%TO.C,R10*%
X154350000Y-74000000D03*
X156000000Y-74000000D03*
%TD*%
D46*
%TO.C,J3*%
X174500000Y-97370000D03*
D47*
X174500000Y-99910000D03*
X174500000Y-102450000D03*
%TD*%
D23*
%TO.C,U1*%
X162525000Y-70095000D03*
X162525000Y-71365000D03*
X162525000Y-72635000D03*
X162525000Y-73905000D03*
X167475000Y-73905000D03*
X167475000Y-72635000D03*
X167475000Y-71365000D03*
X167475000Y-70095000D03*
%TD*%
D42*
%TO.C,C37*%
X124000000Y-135500000D03*
X124000000Y-127500000D03*
%TD*%
D32*
%TO.C,C41*%
X182500000Y-89000000D03*
X184050000Y-89000000D03*
%TD*%
D19*
%TO.C,R27*%
X140000000Y-138450000D03*
X140000000Y-140100000D03*
%TD*%
D12*
%TO.C,R16*%
X180500000Y-75000000D03*
X180500000Y-73350000D03*
%TD*%
D21*
%TO.C,C17*%
X173500000Y-71000000D03*
X173500000Y-68050000D03*
%TD*%
D34*
%TO.C,TP6*%
X190000000Y-93500000D03*
%TD*%
D32*
%TO.C,C16*%
X162500000Y-100175000D03*
X164050000Y-100175000D03*
%TD*%
D11*
%TO.C,C9*%
X158500000Y-69500000D03*
X158500000Y-67950000D03*
%TD*%
D33*
%TO.C,J2*%
X103000000Y-96500000D03*
D29*
X103000000Y-94500000D03*
X103000000Y-92500000D03*
X103000000Y-90500000D03*
X103000000Y-88500000D03*
X103000000Y-86500000D03*
X103000000Y-84500000D03*
X103000000Y-82500000D03*
%TD*%
D24*
%TO.C,BT1*%
X181500000Y-95950000D03*
D25*
X179500000Y-95950000D03*
%TD*%
D48*
%TO.C,BT2*%
X179500000Y-103000000D03*
D25*
X181500000Y-103000000D03*
%TD*%
M02*
