%TF.GenerationSoftware,KiCad,Pcbnew,7.0.2*%
%TF.CreationDate,2023-05-29T18:08:28-04:00*%
%TF.ProjectId,amplifier,616d706c-6966-4696-9572-2e6b69636164,rev?*%
%TF.SameCoordinates,Original*%
%TF.FileFunction,Copper,L2,Bot*%
%TF.FilePolarity,Positive*%
%FSLAX46Y46*%
G04 Gerber Fmt 4.6, Leading zero omitted, Abs format (unit mm)*
G04 Created by KiCad (PCBNEW 7.0.2) date 2023-05-29 18:08:28*
%MOMM*%
%LPD*%
G01*
G04 APERTURE LIST*
G04 Aperture macros list*
%AMRoundRect*
0 Rectangle with rounded corners*
0 $1 Rounding radius*
0 $2 $3 $4 $5 $6 $7 $8 $9 X,Y pos of 4 corners*
0 Add a 4 corners polygon primitive as box body*
4,1,4,$2,$3,$4,$5,$6,$7,$8,$9,$2,$3,0*
0 Add four circle primitives for the rounded corners*
1,1,$1+$1,$2,$3*
1,1,$1+$1,$4,$5*
1,1,$1+$1,$6,$7*
1,1,$1+$1,$8,$9*
0 Add four rect primitives between the rounded corners*
20,1,$1+$1,$2,$3,$4,$5,0*
20,1,$1+$1,$4,$5,$6,$7,0*
20,1,$1+$1,$6,$7,$8,$9,0*
20,1,$1+$1,$8,$9,$2,$3,0*%
G04 Aperture macros list end*
%TA.AperFunction,ComponentPad*%
%ADD10RoundRect,0.250000X0.350000X0.625000X-0.350000X0.625000X-0.350000X-0.625000X0.350000X-0.625000X0*%
%TD*%
%TA.AperFunction,ComponentPad*%
%ADD11O,1.200000X1.750000*%
%TD*%
%TA.AperFunction,ComponentPad*%
%ADD12RoundRect,0.250000X-0.625000X0.350000X-0.625000X-0.350000X0.625000X-0.350000X0.625000X0.350000X0*%
%TD*%
%TA.AperFunction,ComponentPad*%
%ADD13O,1.750000X1.200000*%
%TD*%
%TA.AperFunction,ComponentPad*%
%ADD14RoundRect,0.250000X0.625000X-0.350000X0.625000X0.350000X-0.625000X0.350000X-0.625000X-0.350000X0*%
%TD*%
%TA.AperFunction,ComponentPad*%
%ADD15C,2.000000*%
%TD*%
%TA.AperFunction,ComponentPad*%
%ADD16R,1.700000X1.700000*%
%TD*%
%TA.AperFunction,ComponentPad*%
%ADD17O,1.700000X1.700000*%
%TD*%
%TA.AperFunction,ComponentPad*%
%ADD18RoundRect,0.250000X-0.350000X-0.625000X0.350000X-0.625000X0.350000X0.625000X-0.350000X0.625000X0*%
%TD*%
%TA.AperFunction,ViaPad*%
%ADD19C,0.800000*%
%TD*%
%TA.AperFunction,ViaPad*%
%ADD20C,6.000000*%
%TD*%
%TA.AperFunction,ViaPad*%
%ADD21C,1.500000*%
%TD*%
%TA.AperFunction,Conductor*%
%ADD22C,0.508000*%
%TD*%
G04 APERTURE END LIST*
D10*
%TO.P,J5,1,Pin_1*%
%TO.N,Net-(J5-Pin_1)*%
X167000000Y-65000000D03*
D11*
%TO.P,J5,2,Pin_2*%
%TO.N,Net-(J5-Pin_2)*%
X165000000Y-65000000D03*
%TD*%
D12*
%TO.P,J4,1,Pin_1*%
%TO.N,Net-(J4-Pin_1)*%
X195500000Y-100500000D03*
D13*
%TO.P,J4,2,Pin_2*%
%TO.N,Net-(J4-Pin_2)*%
X195500000Y-102500000D03*
%TO.P,J4,3,Pin_3*%
%TO.N,+9V*%
X195500000Y-104500000D03*
%TO.P,J4,4,Pin_4*%
%TO.N,-9V*%
X195500000Y-106500000D03*
%TO.P,J4,5,Pin_5*%
%TO.N,+9V*%
X195500000Y-108500000D03*
%TO.P,J4,6,Pin_6*%
%TO.N,Net-(J4-Pin_6)*%
X195500000Y-110500000D03*
%TO.P,J4,7,Pin_7*%
%TO.N,unconnected-(J4-Pin_7-Pad7)*%
X195500000Y-112500000D03*
%TO.P,J4,8,Pin_8*%
%TO.N,unconnected-(J4-Pin_8-Pad8)*%
X195500000Y-114500000D03*
%TD*%
D12*
%TO.P,J7,1,Pin_1*%
%TO.N,GND*%
X195500000Y-76000000D03*
D13*
%TO.P,J7,2,Pin_2*%
%TO.N,/HP_Left*%
X195500000Y-78000000D03*
%TO.P,J7,3,Pin_3*%
%TO.N,/HP_Right*%
X195500000Y-80000000D03*
%TO.P,J7,4,Pin_4*%
%TO.N,unconnected-(J7-Pin_4-Pad4)*%
X195500000Y-82000000D03*
%TO.P,J7,5,Pin_5*%
%TO.N,unconnected-(J7-Pin_5-Pad5)*%
X195500000Y-84000000D03*
%TO.P,J7,6,Pin_6*%
%TO.N,unconnected-(J7-Pin_6-Pad6)*%
X195500000Y-86000000D03*
%TO.P,J7,7,Pin_7*%
%TO.N,unconnected-(J7-Pin_7-Pad7)*%
X195500000Y-88000000D03*
%TO.P,J7,8,Pin_8*%
%TO.N,unconnected-(J7-Pin_8-Pad8)*%
X195500000Y-90000000D03*
%TD*%
D14*
%TO.P,J1,1,Pin_1*%
%TO.N,GND*%
X103000000Y-75000000D03*
D13*
%TO.P,J1,2,Pin_2*%
%TO.N,Net-(J1-Pin_2)*%
X103000000Y-73000000D03*
%TO.P,J1,3,Pin_3*%
%TO.N,Net-(J1-Pin_3)*%
X103000000Y-71000000D03*
%TO.P,J1,4,Pin_4*%
%TO.N,GND*%
X103000000Y-69000000D03*
%TO.P,J1,5,Pin_5*%
%TO.N,unconnected-(J1-Pin_5-Pad5)*%
X103000000Y-67000000D03*
%TO.P,J1,6,Pin_6*%
%TO.N,unconnected-(J1-Pin_6-Pad6)*%
X103000000Y-65000000D03*
%TO.P,J1,7,Pin_7*%
%TO.N,unconnected-(J1-Pin_7-Pad7)*%
X103000000Y-63000000D03*
%TO.P,J1,8,Pin_8*%
%TO.N,unconnected-(J1-Pin_8-Pad8)*%
X103000000Y-61000000D03*
%TD*%
D15*
%TO.P,TP5,1,1*%
%TO.N,GND*%
X179000000Y-112500000D03*
%TD*%
D10*
%TO.P,J6,1,Pin_1*%
%TO.N,Net-(J6-Pin_1)*%
X167000000Y-88050000D03*
D11*
%TO.P,J6,2,Pin_2*%
%TO.N,Net-(J6-Pin_2)*%
X165000000Y-88050000D03*
%TD*%
D15*
%TO.P,TP1,1,1*%
%TO.N,Net-(U3A-+)*%
X176000000Y-75000000D03*
%TD*%
%TO.P,TP8,1,1*%
%TO.N,+48V*%
X111000000Y-130000000D03*
%TD*%
%TO.P,TP2,1,1*%
%TO.N,/HP_Left*%
X190000000Y-76000000D03*
%TD*%
%TO.P,TP4,1,1*%
%TO.N,/HP_Right*%
X190000000Y-85500000D03*
%TD*%
%TO.P,TP3,1,1*%
%TO.N,Net-(U3B-+)*%
X175700000Y-86500000D03*
%TD*%
%TO.P,TP7,1,1*%
%TO.N,/vbat-*%
X190000000Y-100500000D03*
%TD*%
D16*
%TO.P,J3,1,Pin_1*%
%TO.N,/vbat+*%
X174500000Y-97370000D03*
D17*
%TO.P,J3,2,Pin_2*%
%TO.N,GND*%
X174500000Y-99910000D03*
%TO.P,J3,3,Pin_3*%
%TO.N,/vbat-*%
X174500000Y-102450000D03*
%TD*%
D15*
%TO.P,TP6,1,1*%
%TO.N,/vbat+*%
X190000000Y-93500000D03*
%TD*%
D14*
%TO.P,J2,1,Pin_1*%
%TO.N,GND*%
X103000000Y-96500000D03*
D13*
%TO.P,J2,2,Pin_2*%
%TO.N,Net-(J2-Pin_2)*%
X103000000Y-94500000D03*
%TO.P,J2,3,Pin_3*%
%TO.N,Net-(J2-Pin_3)*%
X103000000Y-92500000D03*
%TO.P,J2,4,Pin_4*%
%TO.N,GND*%
X103000000Y-90500000D03*
%TO.P,J2,5,Pin_5*%
%TO.N,unconnected-(J2-Pin_5-Pad5)*%
X103000000Y-88500000D03*
%TO.P,J2,6,Pin_6*%
%TO.N,unconnected-(J2-Pin_6-Pad6)*%
X103000000Y-86500000D03*
%TO.P,J2,7,Pin_7*%
%TO.N,unconnected-(J2-Pin_7-Pad7)*%
X103000000Y-84500000D03*
%TO.P,J2,8,Pin_8*%
%TO.N,unconnected-(J2-Pin_8-Pad8)*%
X103000000Y-82500000D03*
%TD*%
D10*
%TO.P,BT1,1,+*%
%TO.N,/vbat+*%
X181500000Y-95950000D03*
D11*
%TO.P,BT1,2,-*%
%TO.N,GND*%
X179500000Y-95950000D03*
%TD*%
D18*
%TO.P,BT2,1,+*%
%TO.N,GND*%
X179500000Y-103000000D03*
D11*
%TO.P,BT2,2,-*%
%TO.N,/vbat-*%
X181500000Y-103000000D03*
%TD*%
D19*
%TO.N,GND*%
X158500000Y-89500000D03*
X158500000Y-100000000D03*
X189000000Y-102500000D03*
X144000000Y-68500000D03*
D20*
X195000000Y-55000000D03*
D19*
X185000000Y-91000000D03*
X158500000Y-77450000D03*
X112000000Y-144050000D03*
X155500000Y-130000000D03*
X144000000Y-91000000D03*
X157500000Y-138919300D03*
X163500000Y-139000000D03*
X171000000Y-91000000D03*
X144000000Y-76500000D03*
X177000000Y-81000000D03*
X157500000Y-130000000D03*
X110500000Y-94000000D03*
X173525000Y-136000000D03*
X186000000Y-94500000D03*
X169000000Y-96500000D03*
X165000000Y-77500000D03*
X186000000Y-81000000D03*
D20*
X195000000Y-145000000D03*
D19*
X110500000Y-72000000D03*
X124000000Y-125000000D03*
D21*
X154590000Y-139595000D03*
D19*
X140500000Y-144000000D03*
D20*
X105000000Y-145000000D03*
D19*
X134500000Y-142500000D03*
X173500000Y-67000000D03*
X138000000Y-133950000D03*
X173500000Y-89500000D03*
X165025000Y-142500000D03*
X165000000Y-100000000D03*
X114500000Y-143500000D03*
X185000000Y-71000000D03*
X144000000Y-98500000D03*
X169000000Y-74000000D03*
X145500000Y-143000000D03*
D20*
X105000000Y-55000000D03*
D19*
X171000000Y-68500000D03*
X158500000Y-66900000D03*
X180500000Y-89500000D03*
X145500000Y-141500000D03*
X145500000Y-140000000D03*
X166500000Y-102500000D03*
X186525000Y-142500000D03*
X166500000Y-80000000D03*
X143000000Y-144000000D03*
X180500000Y-72500000D03*
X161050000Y-143500000D03*
%TO.N,+9V*%
X151250000Y-79000000D03*
X144000000Y-64500000D03*
X143000000Y-85500000D03*
X144000000Y-62500000D03*
X146000000Y-104000000D03*
X146250000Y-81000000D03*
X146250000Y-79000000D03*
X146000000Y-102000000D03*
X151250000Y-81000000D03*
X151500000Y-104000000D03*
X151500000Y-102000000D03*
X143000000Y-87500000D03*
%TO.N,-9V*%
X163500000Y-91000000D03*
X163500000Y-82500000D03*
%TD*%
D22*
%TO.N,+9V*%
X146250000Y-81000000D02*
X146250000Y-79000000D01*
X146000000Y-104000000D02*
X146000000Y-102000000D01*
X143000000Y-87500000D02*
X143000000Y-85500000D01*
X151500000Y-104000000D02*
X151500000Y-102000000D01*
X151250000Y-81000000D02*
X151250000Y-79000000D01*
X144000000Y-64500000D02*
X144000000Y-62500000D01*
%TO.N,-9V*%
X163500000Y-82500000D02*
X163500000Y-91000000D01*
%TD*%
%TA.AperFunction,Conductor*%
%TO.N,GND*%
G36*
X199942539Y-50020185D02*
G01*
X199988294Y-50072989D01*
X199999500Y-50124500D01*
X199999500Y-149875500D01*
X199979815Y-149942539D01*
X199927011Y-149988294D01*
X199875500Y-149999500D01*
X100124500Y-149999500D01*
X100057461Y-149979815D01*
X100011706Y-149927011D01*
X100000500Y-149875500D01*
X100000500Y-129999999D01*
X109740707Y-129999999D01*
X109759838Y-130218671D01*
X109759839Y-130218674D01*
X109816653Y-130430703D01*
X109909421Y-130629646D01*
X110035326Y-130809457D01*
X110190543Y-130964674D01*
X110370354Y-131090579D01*
X110569297Y-131183347D01*
X110781326Y-131240161D01*
X110927108Y-131252914D01*
X110999999Y-131259292D01*
X110999999Y-131259291D01*
X111000000Y-131259292D01*
X111218674Y-131240161D01*
X111430703Y-131183347D01*
X111629646Y-131090579D01*
X111809457Y-130964674D01*
X111964674Y-130809457D01*
X112090579Y-130629646D01*
X112183347Y-130430703D01*
X112240161Y-130218674D01*
X112259292Y-130000000D01*
X112240161Y-129781326D01*
X112183347Y-129569297D01*
X112090579Y-129370354D01*
X111964674Y-129190543D01*
X111809457Y-129035326D01*
X111629646Y-128909421D01*
X111537921Y-128866649D01*
X111430704Y-128816653D01*
X111218671Y-128759838D01*
X110999999Y-128740707D01*
X110781328Y-128759838D01*
X110569295Y-128816653D01*
X110370356Y-128909420D01*
X110370354Y-128909421D01*
X110190543Y-129035326D01*
X110190539Y-129035329D01*
X110035329Y-129190539D01*
X109909420Y-129370356D01*
X109816653Y-129569295D01*
X109759838Y-129781328D01*
X109740707Y-129999999D01*
X100000500Y-129999999D01*
X100000500Y-114453467D01*
X194366722Y-114453467D01*
X194376783Y-114639057D01*
X194402020Y-114729951D01*
X194426508Y-114818148D01*
X194470038Y-114900254D01*
X194513569Y-114982363D01*
X194633895Y-115124021D01*
X194781861Y-115236503D01*
X194950545Y-115314544D01*
X194950546Y-115314544D01*
X194950548Y-115314545D01*
X195132067Y-115354500D01*
X195817974Y-115354500D01*
X195821332Y-115354500D01*
X195959775Y-115339443D01*
X196135911Y-115280096D01*
X196295171Y-115184273D01*
X196430108Y-115056454D01*
X196534413Y-114902615D01*
X196603209Y-114729951D01*
X196633278Y-114546535D01*
X196623216Y-114360942D01*
X196573492Y-114181852D01*
X196486431Y-114017638D01*
X196486430Y-114017636D01*
X196366104Y-113875978D01*
X196218138Y-113763496D01*
X196049454Y-113685455D01*
X195867933Y-113645500D01*
X195178668Y-113645500D01*
X195175331Y-113645862D01*
X195175329Y-113645863D01*
X195040224Y-113660556D01*
X194864090Y-113719903D01*
X194704827Y-113815727D01*
X194569894Y-113943544D01*
X194569892Y-113943546D01*
X194519658Y-114017636D01*
X194465587Y-114097385D01*
X194396791Y-114270048D01*
X194366722Y-114453467D01*
X100000500Y-114453467D01*
X100000500Y-112499999D01*
X177494858Y-112499999D01*
X177515386Y-112747732D01*
X177576413Y-112988721D01*
X177676268Y-113216370D01*
X177776563Y-113369882D01*
X177776564Y-113369882D01*
X178516923Y-112629523D01*
X178540507Y-112709844D01*
X178618239Y-112830798D01*
X178726900Y-112924952D01*
X178857685Y-112984680D01*
X178867466Y-112986086D01*
X178129942Y-113723609D01*
X178129942Y-113723610D01*
X178176766Y-113760055D01*
X178395393Y-113878368D01*
X178630506Y-113959083D01*
X178875707Y-114000000D01*
X179124293Y-114000000D01*
X179369493Y-113959083D01*
X179604606Y-113878368D01*
X179823233Y-113760053D01*
X179870056Y-113723609D01*
X179132533Y-112986086D01*
X179142315Y-112984680D01*
X179273100Y-112924952D01*
X179381761Y-112830798D01*
X179459493Y-112709844D01*
X179483076Y-112629524D01*
X180223434Y-113369882D01*
X180323730Y-113216369D01*
X180423586Y-112988721D01*
X180484613Y-112747732D01*
X180505141Y-112500000D01*
X180501285Y-112453467D01*
X194366722Y-112453467D01*
X194376783Y-112639057D01*
X194402020Y-112729951D01*
X194426508Y-112818148D01*
X194433215Y-112830798D01*
X194513569Y-112982363D01*
X194633895Y-113124021D01*
X194781861Y-113236503D01*
X194950545Y-113314544D01*
X194950546Y-113314544D01*
X194950548Y-113314545D01*
X195132067Y-113354500D01*
X195817974Y-113354500D01*
X195821332Y-113354500D01*
X195959775Y-113339443D01*
X196135911Y-113280096D01*
X196295171Y-113184273D01*
X196430108Y-113056454D01*
X196534413Y-112902615D01*
X196603209Y-112729951D01*
X196633278Y-112546535D01*
X196623216Y-112360942D01*
X196573492Y-112181852D01*
X196486431Y-112017638D01*
X196486430Y-112017636D01*
X196366104Y-111875978D01*
X196218138Y-111763496D01*
X196049454Y-111685455D01*
X195867933Y-111645500D01*
X195178668Y-111645500D01*
X195175331Y-111645862D01*
X195175329Y-111645863D01*
X195040224Y-111660556D01*
X194864090Y-111719903D01*
X194704827Y-111815727D01*
X194569894Y-111943544D01*
X194569892Y-111943546D01*
X194519658Y-112017636D01*
X194465587Y-112097385D01*
X194396791Y-112270048D01*
X194366722Y-112453467D01*
X180501285Y-112453467D01*
X180484613Y-112252267D01*
X180423586Y-112011278D01*
X180323730Y-111783630D01*
X180223434Y-111630116D01*
X179483076Y-112370475D01*
X179459493Y-112290156D01*
X179381761Y-112169202D01*
X179273100Y-112075048D01*
X179142315Y-112015320D01*
X179132534Y-112013913D01*
X179870057Y-111276390D01*
X179870056Y-111276388D01*
X179823235Y-111239947D01*
X179604606Y-111121631D01*
X179369493Y-111040916D01*
X179124293Y-111000000D01*
X178875707Y-111000000D01*
X178630506Y-111040916D01*
X178395393Y-111121631D01*
X178176764Y-111239946D01*
X178129942Y-111276388D01*
X178129942Y-111276390D01*
X178867466Y-112013913D01*
X178857685Y-112015320D01*
X178726900Y-112075048D01*
X178618239Y-112169202D01*
X178540507Y-112290156D01*
X178516923Y-112370475D01*
X177776564Y-111630116D01*
X177676266Y-111783634D01*
X177576413Y-112011278D01*
X177515386Y-112252267D01*
X177494858Y-112499999D01*
X100000500Y-112499999D01*
X100000500Y-110453467D01*
X194366722Y-110453467D01*
X194376783Y-110639057D01*
X194402020Y-110729951D01*
X194426508Y-110818148D01*
X194470038Y-110900254D01*
X194513569Y-110982363D01*
X194633895Y-111124021D01*
X194781861Y-111236503D01*
X194950545Y-111314544D01*
X194950546Y-111314544D01*
X194950548Y-111314545D01*
X195132067Y-111354500D01*
X195817974Y-111354500D01*
X195821332Y-111354500D01*
X195959775Y-111339443D01*
X196135911Y-111280096D01*
X196295171Y-111184273D01*
X196430108Y-111056454D01*
X196534413Y-110902615D01*
X196603209Y-110729951D01*
X196633278Y-110546535D01*
X196623216Y-110360942D01*
X196573492Y-110181852D01*
X196486431Y-110017638D01*
X196486430Y-110017636D01*
X196366104Y-109875978D01*
X196218138Y-109763496D01*
X196049454Y-109685455D01*
X195867933Y-109645500D01*
X195178668Y-109645500D01*
X195175331Y-109645862D01*
X195175329Y-109645863D01*
X195040224Y-109660556D01*
X194864090Y-109719903D01*
X194704827Y-109815727D01*
X194569894Y-109943544D01*
X194569892Y-109943546D01*
X194519658Y-110017636D01*
X194465587Y-110097385D01*
X194396791Y-110270048D01*
X194366722Y-110453467D01*
X100000500Y-110453467D01*
X100000500Y-108453467D01*
X194366722Y-108453467D01*
X194376783Y-108639057D01*
X194402020Y-108729951D01*
X194426508Y-108818148D01*
X194470038Y-108900254D01*
X194513569Y-108982363D01*
X194633895Y-109124021D01*
X194781861Y-109236503D01*
X194950545Y-109314544D01*
X194950546Y-109314544D01*
X194950548Y-109314545D01*
X195132067Y-109354500D01*
X195817974Y-109354500D01*
X195821332Y-109354500D01*
X195959775Y-109339443D01*
X196135911Y-109280096D01*
X196295171Y-109184273D01*
X196430108Y-109056454D01*
X196534413Y-108902615D01*
X196603209Y-108729951D01*
X196633278Y-108546535D01*
X196623216Y-108360942D01*
X196573492Y-108181852D01*
X196486431Y-108017638D01*
X196486430Y-108017636D01*
X196366104Y-107875978D01*
X196218138Y-107763496D01*
X196049454Y-107685455D01*
X195867933Y-107645500D01*
X195178668Y-107645500D01*
X195175331Y-107645862D01*
X195175329Y-107645863D01*
X195040224Y-107660556D01*
X194864090Y-107719903D01*
X194704827Y-107815727D01*
X194569894Y-107943544D01*
X194569892Y-107943546D01*
X194519658Y-108017636D01*
X194465587Y-108097385D01*
X194396791Y-108270048D01*
X194366722Y-108453467D01*
X100000500Y-108453467D01*
X100000500Y-106453467D01*
X194366722Y-106453467D01*
X194376783Y-106639057D01*
X194402020Y-106729951D01*
X194426508Y-106818148D01*
X194470038Y-106900254D01*
X194513569Y-106982363D01*
X194633895Y-107124021D01*
X194781861Y-107236503D01*
X194950545Y-107314544D01*
X194950546Y-107314544D01*
X194950548Y-107314545D01*
X195132067Y-107354500D01*
X195817974Y-107354500D01*
X195821332Y-107354500D01*
X195959775Y-107339443D01*
X196135911Y-107280096D01*
X196295171Y-107184273D01*
X196430108Y-107056454D01*
X196534413Y-106902615D01*
X196603209Y-106729951D01*
X196633278Y-106546535D01*
X196623216Y-106360942D01*
X196573492Y-106181852D01*
X196486431Y-106017638D01*
X196486430Y-106017636D01*
X196366104Y-105875978D01*
X196218138Y-105763496D01*
X196049454Y-105685455D01*
X195867933Y-105645500D01*
X195178668Y-105645500D01*
X195175331Y-105645862D01*
X195175329Y-105645863D01*
X195040224Y-105660556D01*
X194864090Y-105719903D01*
X194704827Y-105815727D01*
X194569894Y-105943544D01*
X194569892Y-105943546D01*
X194519658Y-106017636D01*
X194465587Y-106097385D01*
X194396791Y-106270048D01*
X194366722Y-106453467D01*
X100000500Y-106453467D01*
X100000500Y-104000000D01*
X145340692Y-104000000D01*
X145359851Y-104157782D01*
X145416212Y-104306394D01*
X145453864Y-104360942D01*
X145506502Y-104437201D01*
X145614421Y-104532810D01*
X145625472Y-104542600D01*
X145632970Y-104546535D01*
X145766207Y-104616463D01*
X145920529Y-104654500D01*
X145920530Y-104654500D01*
X146079470Y-104654500D01*
X146079471Y-104654500D01*
X146233793Y-104616463D01*
X146374529Y-104542599D01*
X146493498Y-104437201D01*
X146583787Y-104306395D01*
X146640149Y-104157782D01*
X146659307Y-104000000D01*
X150840692Y-104000000D01*
X150859851Y-104157782D01*
X150916212Y-104306394D01*
X150953864Y-104360942D01*
X151006502Y-104437201D01*
X151114421Y-104532810D01*
X151125472Y-104542600D01*
X151132970Y-104546535D01*
X151266207Y-104616463D01*
X151420529Y-104654500D01*
X151420530Y-104654500D01*
X151579470Y-104654500D01*
X151579471Y-104654500D01*
X151733793Y-104616463D01*
X151874529Y-104542599D01*
X151975138Y-104453467D01*
X194366722Y-104453467D01*
X194376783Y-104639057D01*
X194381071Y-104654500D01*
X194426508Y-104818148D01*
X194470038Y-104900254D01*
X194513569Y-104982363D01*
X194633895Y-105124021D01*
X194781861Y-105236503D01*
X194950545Y-105314544D01*
X194950546Y-105314544D01*
X194950548Y-105314545D01*
X195132067Y-105354500D01*
X195817974Y-105354500D01*
X195821332Y-105354500D01*
X195959775Y-105339443D01*
X196135911Y-105280096D01*
X196295171Y-105184273D01*
X196430108Y-105056454D01*
X196534413Y-104902615D01*
X196603209Y-104729951D01*
X196633278Y-104546535D01*
X196623216Y-104360942D01*
X196573492Y-104181852D01*
X196486431Y-104017638D01*
X196486430Y-104017636D01*
X196366104Y-103875978D01*
X196218138Y-103763496D01*
X196049454Y-103685455D01*
X195867933Y-103645500D01*
X195178668Y-103645500D01*
X195175331Y-103645862D01*
X195175329Y-103645863D01*
X195040224Y-103660556D01*
X194864090Y-103719903D01*
X194704827Y-103815727D01*
X194584078Y-103930108D01*
X194569892Y-103943546D01*
X194481787Y-104073492D01*
X194465587Y-104097385D01*
X194441523Y-104157782D01*
X194396791Y-104270049D01*
X194369389Y-104437201D01*
X194366722Y-104453467D01*
X151975138Y-104453467D01*
X151993498Y-104437201D01*
X152083787Y-104306395D01*
X152140149Y-104157782D01*
X152159307Y-104000000D01*
X152140149Y-103842218D01*
X152083787Y-103693605D01*
X152030450Y-103616333D01*
X152008567Y-103549979D01*
X152008500Y-103545893D01*
X152008500Y-102454106D01*
X152028185Y-102387067D01*
X152030426Y-102383700D01*
X152083787Y-102306395D01*
X152140149Y-102157782D01*
X152159307Y-102000000D01*
X152140149Y-101842218D01*
X152083787Y-101693605D01*
X151993498Y-101562799D01*
X151896627Y-101476978D01*
X151874527Y-101457399D01*
X151733794Y-101383537D01*
X151656631Y-101364518D01*
X151579471Y-101345500D01*
X151420529Y-101345500D01*
X151385455Y-101354145D01*
X151266205Y-101383537D01*
X151125472Y-101457399D01*
X151006501Y-101562800D01*
X150916212Y-101693605D01*
X150859851Y-101842217D01*
X150840692Y-102000000D01*
X150859851Y-102157782D01*
X150916211Y-102306392D01*
X150916212Y-102306394D01*
X150916213Y-102306395D01*
X150969550Y-102383667D01*
X150991433Y-102450020D01*
X150991500Y-102454106D01*
X150991500Y-103545893D01*
X150971815Y-103612932D01*
X150969550Y-103616333D01*
X150916212Y-103693605D01*
X150859851Y-103842217D01*
X150840692Y-104000000D01*
X146659307Y-104000000D01*
X146640149Y-103842218D01*
X146583787Y-103693605D01*
X146530450Y-103616333D01*
X146508567Y-103549979D01*
X146508500Y-103545893D01*
X146508500Y-102454106D01*
X146528185Y-102387067D01*
X146530426Y-102383700D01*
X146583787Y-102306395D01*
X146640149Y-102157782D01*
X146659307Y-102000000D01*
X146640149Y-101842218D01*
X146583787Y-101693605D01*
X146493498Y-101562799D01*
X146396627Y-101476978D01*
X146374527Y-101457399D01*
X146233794Y-101383537D01*
X146156631Y-101364518D01*
X146079471Y-101345500D01*
X145920529Y-101345500D01*
X145885455Y-101354145D01*
X145766205Y-101383537D01*
X145625472Y-101457399D01*
X145506501Y-101562800D01*
X145416212Y-101693605D01*
X145359851Y-101842217D01*
X145340692Y-102000000D01*
X145359851Y-102157782D01*
X145416211Y-102306392D01*
X145416212Y-102306394D01*
X145416213Y-102306395D01*
X145469550Y-102383667D01*
X145491433Y-102450020D01*
X145491500Y-102454106D01*
X145491500Y-103545893D01*
X145471815Y-103612932D01*
X145469550Y-103616333D01*
X145416212Y-103693605D01*
X145359851Y-103842217D01*
X145340692Y-104000000D01*
X100000500Y-104000000D01*
X100000500Y-100160000D01*
X173169364Y-100160000D01*
X173226569Y-100373492D01*
X173326399Y-100587576D01*
X173461893Y-100781081D01*
X173628918Y-100948106D01*
X173822423Y-101083600D01*
X174036508Y-101183430D01*
X174069038Y-101192147D01*
X174128699Y-101228512D01*
X174159228Y-101291358D01*
X174150934Y-101360734D01*
X174106448Y-101414612D01*
X174081740Y-101427548D01*
X174005575Y-101457054D01*
X173831535Y-101564815D01*
X173680268Y-101702713D01*
X173556911Y-101866065D01*
X173465670Y-102049300D01*
X173409654Y-102246176D01*
X173390768Y-102450000D01*
X173409654Y-102653823D01*
X173465670Y-102850699D01*
X173556911Y-103033934D01*
X173680268Y-103197286D01*
X173831535Y-103335184D01*
X173831537Y-103335185D01*
X173831538Y-103335186D01*
X174005573Y-103442944D01*
X174196444Y-103516888D01*
X174397653Y-103554500D01*
X174397655Y-103554500D01*
X174602345Y-103554500D01*
X174602347Y-103554500D01*
X174803556Y-103516888D01*
X174994427Y-103442944D01*
X175168462Y-103335186D01*
X175319732Y-103197285D01*
X175443088Y-103033935D01*
X175534328Y-102850701D01*
X175534329Y-102850699D01*
X175562980Y-102750000D01*
X178400000Y-102750000D01*
X179220440Y-102750000D01*
X179181722Y-102792059D01*
X179131449Y-102906670D01*
X179121114Y-103031395D01*
X179151837Y-103152719D01*
X179215394Y-103250000D01*
X178400001Y-103250000D01*
X178400001Y-103671829D01*
X178400321Y-103678111D01*
X178410493Y-103777695D01*
X178465642Y-103944122D01*
X178557683Y-104093345D01*
X178681654Y-104217316D01*
X178830877Y-104309357D01*
X178997303Y-104364506D01*
X179096890Y-104374680D01*
X179103168Y-104374999D01*
X179249999Y-104374999D01*
X179250000Y-104374998D01*
X179250000Y-103280617D01*
X179319052Y-103334363D01*
X179437424Y-103375000D01*
X179531073Y-103375000D01*
X179623446Y-103359586D01*
X179733514Y-103300019D01*
X179749999Y-103282111D01*
X179749999Y-104374998D01*
X179750000Y-104374999D01*
X179896829Y-104374999D01*
X179903111Y-104374678D01*
X180002695Y-104364506D01*
X180169122Y-104309357D01*
X180318345Y-104217316D01*
X180442316Y-104093345D01*
X180534357Y-103944122D01*
X180581250Y-103802610D01*
X180621023Y-103745165D01*
X180685538Y-103718342D01*
X180754314Y-103730657D01*
X180805206Y-103777685D01*
X180815727Y-103795171D01*
X180943546Y-103930108D01*
X181097385Y-104034413D01*
X181270049Y-104103209D01*
X181453465Y-104133278D01*
X181639058Y-104123216D01*
X181818148Y-104073492D01*
X181982362Y-103986431D01*
X182124021Y-103866105D01*
X182226986Y-103730657D01*
X182236503Y-103718138D01*
X182305019Y-103570041D01*
X182314545Y-103549452D01*
X182354500Y-103367933D01*
X182354500Y-102678668D01*
X182339443Y-102540225D01*
X182310211Y-102453467D01*
X194366722Y-102453467D01*
X194376783Y-102639057D01*
X194393699Y-102699981D01*
X194426508Y-102818148D01*
X194443767Y-102850701D01*
X194513569Y-102982363D01*
X194633895Y-103124021D01*
X194781861Y-103236503D01*
X194950545Y-103314544D01*
X194950546Y-103314544D01*
X194950548Y-103314545D01*
X195132067Y-103354500D01*
X195817974Y-103354500D01*
X195821332Y-103354500D01*
X195959775Y-103339443D01*
X196135911Y-103280096D01*
X196295171Y-103184273D01*
X196430108Y-103056454D01*
X196534413Y-102902615D01*
X196603209Y-102729951D01*
X196633278Y-102546535D01*
X196623216Y-102360942D01*
X196573492Y-102181852D01*
X196486431Y-102017638D01*
X196486430Y-102017636D01*
X196366104Y-101875978D01*
X196218138Y-101763496D01*
X196049454Y-101685455D01*
X195867933Y-101645500D01*
X195178668Y-101645500D01*
X195175331Y-101645862D01*
X195175329Y-101645863D01*
X195040224Y-101660556D01*
X194864090Y-101719903D01*
X194704827Y-101815727D01*
X194569894Y-101943544D01*
X194569892Y-101943546D01*
X194484228Y-102069892D01*
X194465587Y-102097385D01*
X194396791Y-102270048D01*
X194390833Y-102306392D01*
X194367201Y-102450548D01*
X194366722Y-102453467D01*
X182310211Y-102453467D01*
X182280096Y-102364089D01*
X182184273Y-102204829D01*
X182184272Y-102204827D01*
X182117081Y-102133895D01*
X182056454Y-102069892D01*
X181902615Y-101965587D01*
X181729951Y-101896791D01*
X181546535Y-101866722D01*
X181546532Y-101866722D01*
X181360942Y-101876783D01*
X181181852Y-101926508D01*
X181017636Y-102013569D01*
X180875978Y-102133895D01*
X180798473Y-102235850D01*
X180742231Y-102277307D01*
X180672505Y-102281776D01*
X180611431Y-102247838D01*
X180582052Y-102199811D01*
X180534358Y-102055878D01*
X180442316Y-101906654D01*
X180318345Y-101782683D01*
X180169122Y-101690642D01*
X180002696Y-101635493D01*
X179903109Y-101625319D01*
X179896832Y-101625000D01*
X179750000Y-101625000D01*
X179749999Y-102719382D01*
X179680948Y-102665637D01*
X179562576Y-102625000D01*
X179468927Y-102625000D01*
X179376554Y-102640414D01*
X179266486Y-102699981D01*
X179250000Y-102717889D01*
X179250000Y-101625000D01*
X179103171Y-101625000D01*
X179096888Y-101625321D01*
X178997304Y-101635493D01*
X178830877Y-101690642D01*
X178681654Y-101782683D01*
X178557683Y-101906654D01*
X178465642Y-102055877D01*
X178410493Y-102222303D01*
X178400319Y-102321890D01*
X178400000Y-102328168D01*
X178400000Y-102750000D01*
X175562980Y-102750000D01*
X175590345Y-102653823D01*
X175593297Y-102621954D01*
X175609232Y-102450000D01*
X175594453Y-102290512D01*
X175590345Y-102246176D01*
X175534329Y-102049300D01*
X175443088Y-101866065D01*
X175319731Y-101702713D01*
X175168464Y-101564815D01*
X174994427Y-101457056D01*
X174994422Y-101457054D01*
X174918259Y-101427548D01*
X174862858Y-101384976D01*
X174839268Y-101319209D01*
X174854979Y-101251128D01*
X174905003Y-101202350D01*
X174930962Y-101192147D01*
X174963490Y-101183431D01*
X175177576Y-101083600D01*
X175371081Y-100948106D01*
X175538106Y-100781081D01*
X175673600Y-100587576D01*
X175714438Y-100500000D01*
X188740707Y-100500000D01*
X188759838Y-100718671D01*
X188816653Y-100930704D01*
X188866649Y-101037921D01*
X188909421Y-101129646D01*
X189035326Y-101309457D01*
X189190543Y-101464674D01*
X189370354Y-101590579D01*
X189569297Y-101683347D01*
X189781326Y-101740161D01*
X190000000Y-101759292D01*
X190218674Y-101740161D01*
X190430703Y-101683347D01*
X190629646Y-101590579D01*
X190809457Y-101464674D01*
X190964674Y-101309457D01*
X191090579Y-101129646D01*
X191183347Y-100930703D01*
X191192924Y-100894960D01*
X194370500Y-100894960D01*
X194370501Y-100898254D01*
X194370853Y-100901532D01*
X194370854Y-100901543D01*
X194373989Y-100930703D01*
X194376960Y-100958342D01*
X194427658Y-101094267D01*
X194514596Y-101210404D01*
X194630733Y-101297342D01*
X194630736Y-101297343D01*
X194766654Y-101348039D01*
X194766655Y-101348039D01*
X194766658Y-101348040D01*
X194826745Y-101354500D01*
X196173254Y-101354499D01*
X196233342Y-101348040D01*
X196369267Y-101297342D01*
X196485404Y-101210404D01*
X196572342Y-101094267D01*
X196623040Y-100958342D01*
X196629500Y-100898255D01*
X196629499Y-100101746D01*
X196623040Y-100041658D01*
X196572342Y-99905733D01*
X196485404Y-99789596D01*
X196369267Y-99702658D01*
X196369264Y-99702657D01*
X196369263Y-99702656D01*
X196233345Y-99651960D01*
X196176541Y-99645853D01*
X196176535Y-99645852D01*
X196173255Y-99645500D01*
X196169945Y-99645500D01*
X194830057Y-99645500D01*
X194830038Y-99645500D01*
X194826746Y-99645501D01*
X194823468Y-99645853D01*
X194823456Y-99645854D01*
X194766658Y-99651960D01*
X194630733Y-99702658D01*
X194514596Y-99789596D01*
X194427656Y-99905736D01*
X194376960Y-100041654D01*
X194370853Y-100098458D01*
X194370500Y-100101745D01*
X194370500Y-100105053D01*
X194370500Y-100105054D01*
X194370500Y-100894942D01*
X194370500Y-100894960D01*
X191192924Y-100894960D01*
X191240161Y-100718674D01*
X191259292Y-100500000D01*
X191240161Y-100281326D01*
X191183347Y-100069297D01*
X191090579Y-99870354D01*
X190964674Y-99690543D01*
X190809457Y-99535326D01*
X190629646Y-99409421D01*
X190537921Y-99366649D01*
X190430704Y-99316653D01*
X190218671Y-99259838D01*
X190000000Y-99240707D01*
X189781328Y-99259838D01*
X189569295Y-99316653D01*
X189370356Y-99409420D01*
X189370354Y-99409421D01*
X189190543Y-99535326D01*
X189190539Y-99535329D01*
X189035329Y-99690539D01*
X189035326Y-99690542D01*
X189035326Y-99690543D01*
X188965969Y-99789596D01*
X188909420Y-99870356D01*
X188816653Y-100069295D01*
X188759838Y-100281328D01*
X188740707Y-100500000D01*
X175714438Y-100500000D01*
X175773430Y-100373492D01*
X175830636Y-100160000D01*
X174933686Y-100160000D01*
X174959493Y-100119844D01*
X175000000Y-99981889D01*
X175000000Y-99838111D01*
X174959493Y-99700156D01*
X174933686Y-99660000D01*
X175830636Y-99660000D01*
X175830635Y-99659999D01*
X175773430Y-99446507D01*
X175673599Y-99232421D01*
X175538109Y-99038921D01*
X175371081Y-98871893D01*
X175177576Y-98736399D01*
X175122853Y-98710881D01*
X175070414Y-98664709D01*
X175051262Y-98597515D01*
X175071478Y-98530634D01*
X175124643Y-98485299D01*
X175175257Y-98474499D01*
X175375066Y-98474499D01*
X175449301Y-98459734D01*
X175533484Y-98403484D01*
X175589734Y-98319301D01*
X175604500Y-98245067D01*
X175604499Y-96494934D01*
X175589734Y-96420699D01*
X175571068Y-96392765D01*
X175533484Y-96336515D01*
X175449300Y-96280265D01*
X175420065Y-96274450D01*
X178400000Y-96274450D01*
X178400281Y-96280359D01*
X178414964Y-96434120D01*
X178474149Y-96635687D01*
X178570412Y-96822412D01*
X178700269Y-96987538D01*
X178859036Y-97125111D01*
X179040963Y-97230146D01*
X179239485Y-97298855D01*
X179250000Y-97300366D01*
X179250000Y-96230617D01*
X179319052Y-96284363D01*
X179437424Y-96325000D01*
X179531073Y-96325000D01*
X179623446Y-96309586D01*
X179733514Y-96250019D01*
X179749999Y-96232111D01*
X179749999Y-97296257D01*
X179861410Y-97269229D01*
X180052505Y-97181960D01*
X180223621Y-97060107D01*
X180368594Y-96908064D01*
X180467007Y-96754932D01*
X180519811Y-96709177D01*
X180588969Y-96699233D01*
X180652525Y-96728258D01*
X180687503Y-96778637D01*
X180702656Y-96819263D01*
X180702657Y-96819264D01*
X180702658Y-96819267D01*
X180789596Y-96935404D01*
X180905733Y-97022342D01*
X180905736Y-97022343D01*
X181041654Y-97073039D01*
X181041655Y-97073039D01*
X181041658Y-97073040D01*
X181101745Y-97079500D01*
X181898254Y-97079499D01*
X181958342Y-97073040D01*
X182094267Y-97022342D01*
X182210404Y-96935404D01*
X182297342Y-96819267D01*
X182348040Y-96683342D01*
X182354500Y-96623255D01*
X182354499Y-95276746D01*
X182348040Y-95216658D01*
X182297342Y-95080733D01*
X182210404Y-94964596D01*
X182094267Y-94877658D01*
X182094264Y-94877657D01*
X182094263Y-94877656D01*
X181958345Y-94826960D01*
X181901541Y-94820853D01*
X181901535Y-94820852D01*
X181898255Y-94820500D01*
X181894945Y-94820500D01*
X181105057Y-94820500D01*
X181105038Y-94820500D01*
X181101746Y-94820501D01*
X181098468Y-94820853D01*
X181098456Y-94820854D01*
X181041658Y-94826960D01*
X180905733Y-94877658D01*
X180789596Y-94964596D01*
X180705014Y-95077587D01*
X180702657Y-95080735D01*
X180686664Y-95123613D01*
X180644792Y-95179546D01*
X180579328Y-95203962D01*
X180511055Y-95189110D01*
X180461650Y-95139704D01*
X180460267Y-95137098D01*
X180429587Y-95077587D01*
X180299730Y-94912461D01*
X180140963Y-94774888D01*
X179959036Y-94669853D01*
X179760511Y-94601143D01*
X179750000Y-94599631D01*
X179750000Y-94599632D01*
X179749999Y-95669382D01*
X179680948Y-95615637D01*
X179562576Y-95575000D01*
X179468927Y-95575000D01*
X179376554Y-95590414D01*
X179266486Y-95649981D01*
X179250000Y-95667889D01*
X179250000Y-94603740D01*
X179138593Y-94630768D01*
X178947494Y-94718039D01*
X178776378Y-94839892D01*
X178631407Y-94991933D01*
X178517833Y-95168655D01*
X178439755Y-95363685D01*
X178400000Y-95569962D01*
X178400000Y-95700000D01*
X179220440Y-95700000D01*
X179181722Y-95742059D01*
X179131449Y-95856670D01*
X179121114Y-95981395D01*
X179151837Y-96102719D01*
X179215394Y-96200000D01*
X178400000Y-96200000D01*
X178400000Y-96274450D01*
X175420065Y-96274450D01*
X175375069Y-96265500D01*
X173624934Y-96265500D01*
X173550698Y-96280266D01*
X173466515Y-96336515D01*
X173410265Y-96420699D01*
X173395500Y-96494930D01*
X173395500Y-98245065D01*
X173410266Y-98319301D01*
X173466515Y-98403484D01*
X173550699Y-98459733D01*
X173550699Y-98459734D01*
X173624933Y-98474500D01*
X173824742Y-98474499D01*
X173891779Y-98494183D01*
X173937534Y-98546987D01*
X173947478Y-98616145D01*
X173918453Y-98679701D01*
X173877147Y-98710880D01*
X173822422Y-98736399D01*
X173628921Y-98871890D01*
X173461890Y-99038921D01*
X173326400Y-99232421D01*
X173226569Y-99446507D01*
X173169364Y-99659999D01*
X173169364Y-99660000D01*
X174066314Y-99660000D01*
X174040507Y-99700156D01*
X174000000Y-99838111D01*
X174000000Y-99981889D01*
X174040507Y-100119844D01*
X174066314Y-100160000D01*
X173169364Y-100160000D01*
X100000500Y-100160000D01*
X100000500Y-96250000D01*
X101625000Y-96250000D01*
X102720440Y-96250000D01*
X102681722Y-96292059D01*
X102631449Y-96406670D01*
X102621114Y-96531395D01*
X102651837Y-96652719D01*
X102715394Y-96750000D01*
X101625001Y-96750000D01*
X101625001Y-96896829D01*
X101625321Y-96903111D01*
X101635493Y-97002695D01*
X101690642Y-97169122D01*
X101782683Y-97318345D01*
X101906654Y-97442316D01*
X102055877Y-97534357D01*
X102222303Y-97589506D01*
X102321890Y-97599680D01*
X102328168Y-97599999D01*
X102749999Y-97599999D01*
X102750000Y-97599998D01*
X102750000Y-96780617D01*
X102819052Y-96834363D01*
X102937424Y-96875000D01*
X103031073Y-96875000D01*
X103123446Y-96859586D01*
X103233514Y-96800019D01*
X103250000Y-96782110D01*
X103250000Y-97599999D01*
X103671829Y-97599999D01*
X103678111Y-97599678D01*
X103777695Y-97589506D01*
X103944122Y-97534357D01*
X104093345Y-97442316D01*
X104217316Y-97318345D01*
X104309357Y-97169122D01*
X104364506Y-97002696D01*
X104374680Y-96903109D01*
X104375000Y-96896831D01*
X104375000Y-96750000D01*
X103279560Y-96750000D01*
X103318278Y-96707941D01*
X103368551Y-96593330D01*
X103378886Y-96468605D01*
X103348163Y-96347281D01*
X103284606Y-96250000D01*
X104374999Y-96250000D01*
X104374999Y-96103170D01*
X104374678Y-96096888D01*
X104364506Y-95997304D01*
X104309357Y-95830877D01*
X104217316Y-95681654D01*
X104093345Y-95557683D01*
X103944123Y-95465643D01*
X103802609Y-95418749D01*
X103745165Y-95378976D01*
X103718342Y-95314460D01*
X103730657Y-95245684D01*
X103777685Y-95194793D01*
X103795171Y-95184273D01*
X103930108Y-95056454D01*
X104034413Y-94902615D01*
X104103209Y-94729951D01*
X104133278Y-94546535D01*
X104123216Y-94360942D01*
X104073492Y-94181852D01*
X103986431Y-94017638D01*
X103986430Y-94017636D01*
X103866104Y-93875978D01*
X103718138Y-93763496D01*
X103549454Y-93685455D01*
X103367933Y-93645500D01*
X102678668Y-93645500D01*
X102675331Y-93645862D01*
X102675329Y-93645863D01*
X102540224Y-93660556D01*
X102364090Y-93719903D01*
X102204827Y-93815727D01*
X102083450Y-93930703D01*
X102069892Y-93943546D01*
X102019658Y-94017636D01*
X101965587Y-94097385D01*
X101896791Y-94270048D01*
X101866722Y-94453467D01*
X101876783Y-94639057D01*
X101898713Y-94718039D01*
X101926508Y-94818148D01*
X101927943Y-94820854D01*
X102013569Y-94982363D01*
X102133895Y-95124021D01*
X102235850Y-95201526D01*
X102277307Y-95257767D01*
X102281776Y-95327494D01*
X102247839Y-95388568D01*
X102199812Y-95417947D01*
X102055877Y-95465642D01*
X101906654Y-95557683D01*
X101782683Y-95681654D01*
X101690642Y-95830877D01*
X101635493Y-95997303D01*
X101625319Y-96096890D01*
X101625000Y-96103168D01*
X101625000Y-96250000D01*
X100000500Y-96250000D01*
X100000500Y-93500000D01*
X188740707Y-93500000D01*
X188759838Y-93718671D01*
X188816653Y-93930704D01*
X188857190Y-94017636D01*
X188909421Y-94129646D01*
X189035326Y-94309457D01*
X189190543Y-94464674D01*
X189370354Y-94590579D01*
X189569297Y-94683347D01*
X189781326Y-94740161D01*
X190000000Y-94759292D01*
X190218674Y-94740161D01*
X190430703Y-94683347D01*
X190629646Y-94590579D01*
X190809457Y-94464674D01*
X190964674Y-94309457D01*
X191090579Y-94129646D01*
X191183347Y-93930703D01*
X191240161Y-93718674D01*
X191259292Y-93500000D01*
X191240161Y-93281326D01*
X191183347Y-93069297D01*
X191090579Y-92870354D01*
X190964674Y-92690543D01*
X190809457Y-92535326D01*
X190629646Y-92409421D01*
X190525682Y-92360942D01*
X190430704Y-92316653D01*
X190218671Y-92259838D01*
X190000000Y-92240707D01*
X189781328Y-92259838D01*
X189569295Y-92316653D01*
X189370356Y-92409420D01*
X189370354Y-92409421D01*
X189307453Y-92453465D01*
X189190539Y-92535329D01*
X189035329Y-92690539D01*
X188909420Y-92870356D01*
X188816653Y-93069295D01*
X188759838Y-93281328D01*
X188740707Y-93500000D01*
X100000500Y-93500000D01*
X100000500Y-90249999D01*
X101649631Y-90249999D01*
X101649632Y-90250000D01*
X102720440Y-90250000D01*
X102681722Y-90292059D01*
X102631449Y-90406670D01*
X102621114Y-90531395D01*
X102651837Y-90652719D01*
X102715394Y-90750000D01*
X101653742Y-90750000D01*
X101680770Y-90861410D01*
X101768039Y-91052505D01*
X101889892Y-91223621D01*
X102041933Y-91368592D01*
X102218657Y-91482166D01*
X102311605Y-91519377D01*
X102366527Y-91562567D01*
X102389380Y-91628594D01*
X102372908Y-91696494D01*
X102329449Y-91740745D01*
X102204829Y-91815726D01*
X102069894Y-91943544D01*
X102069892Y-91943546D01*
X102019658Y-92017636D01*
X101965587Y-92097385D01*
X101896791Y-92270048D01*
X101866722Y-92453467D01*
X101876783Y-92639057D01*
X101902020Y-92729951D01*
X101926508Y-92818148D01*
X101954186Y-92870354D01*
X102013569Y-92982363D01*
X102133895Y-93124021D01*
X102281861Y-93236503D01*
X102450545Y-93314544D01*
X102450546Y-93314544D01*
X102450548Y-93314545D01*
X102632067Y-93354500D01*
X103317974Y-93354500D01*
X103321332Y-93354500D01*
X103459775Y-93339443D01*
X103635911Y-93280096D01*
X103795171Y-93184273D01*
X103930108Y-93056454D01*
X104034413Y-92902615D01*
X104103209Y-92729951D01*
X104133278Y-92546535D01*
X104123216Y-92360942D01*
X104073492Y-92181852D01*
X103986431Y-92017638D01*
X103986430Y-92017636D01*
X103866104Y-91875978D01*
X103718138Y-91763496D01*
X103688317Y-91749700D01*
X103635739Y-91703686D01*
X103616385Y-91636550D01*
X103636399Y-91569609D01*
X103683563Y-91526945D01*
X103872412Y-91429587D01*
X104037538Y-91299730D01*
X104175111Y-91140963D01*
X104256496Y-90999999D01*
X162840692Y-90999999D01*
X162859851Y-91157782D01*
X162916212Y-91306394D01*
X162916213Y-91306395D01*
X163006502Y-91437201D01*
X163057257Y-91482166D01*
X163125472Y-91542600D01*
X163176934Y-91569609D01*
X163266207Y-91616463D01*
X163420529Y-91654500D01*
X163420530Y-91654500D01*
X163579470Y-91654500D01*
X163579471Y-91654500D01*
X163733793Y-91616463D01*
X163874529Y-91542599D01*
X163993498Y-91437201D01*
X164083787Y-91306395D01*
X164140149Y-91157782D01*
X164159307Y-91000000D01*
X164140149Y-90842218D01*
X164083787Y-90693605D01*
X164030450Y-90616333D01*
X164008567Y-90549979D01*
X164008500Y-90545893D01*
X164008500Y-89953467D01*
X194366722Y-89953467D01*
X194376783Y-90139057D01*
X194407587Y-90250000D01*
X194426508Y-90318148D01*
X194470038Y-90400255D01*
X194513569Y-90482363D01*
X194633895Y-90624021D01*
X194781861Y-90736503D01*
X194950545Y-90814544D01*
X194950546Y-90814544D01*
X194950548Y-90814545D01*
X195132067Y-90854500D01*
X195817974Y-90854500D01*
X195821332Y-90854500D01*
X195959775Y-90839443D01*
X196135911Y-90780096D01*
X196295171Y-90684273D01*
X196430108Y-90556454D01*
X196534413Y-90402615D01*
X196603209Y-90229951D01*
X196633278Y-90046535D01*
X196623216Y-89860942D01*
X196573492Y-89681852D01*
X196486431Y-89517638D01*
X196486430Y-89517636D01*
X196366104Y-89375978D01*
X196218138Y-89263496D01*
X196049454Y-89185455D01*
X195867933Y-89145500D01*
X195178668Y-89145500D01*
X195175331Y-89145862D01*
X195175329Y-89145863D01*
X195040224Y-89160556D01*
X194864090Y-89219903D01*
X194704827Y-89315727D01*
X194569894Y-89443544D01*
X194569892Y-89443546D01*
X194483877Y-89570409D01*
X194465587Y-89597385D01*
X194396791Y-89770048D01*
X194366722Y-89953467D01*
X164008500Y-89953467D01*
X164008500Y-88781162D01*
X164028185Y-88714123D01*
X164080989Y-88668368D01*
X164150147Y-88658424D01*
X164213703Y-88687449D01*
X164238748Y-88717231D01*
X164269378Y-88768138D01*
X164315727Y-88845172D01*
X164370140Y-88902614D01*
X164443546Y-88980108D01*
X164597385Y-89084413D01*
X164770049Y-89153209D01*
X164953465Y-89183278D01*
X165139058Y-89173216D01*
X165318148Y-89123492D01*
X165482362Y-89036431D01*
X165624021Y-88916105D01*
X165736502Y-88768139D01*
X165736501Y-88768139D01*
X165736503Y-88768138D01*
X165758792Y-88719960D01*
X166145500Y-88719960D01*
X166145501Y-88723254D01*
X166145853Y-88726532D01*
X166145854Y-88726543D01*
X166146925Y-88736502D01*
X166151960Y-88783342D01*
X166202658Y-88919267D01*
X166289596Y-89035404D01*
X166405733Y-89122342D01*
X166410235Y-89124021D01*
X166541654Y-89173039D01*
X166541655Y-89173039D01*
X166541658Y-89173040D01*
X166601745Y-89179500D01*
X167398254Y-89179499D01*
X167458342Y-89173040D01*
X167594267Y-89122342D01*
X167710404Y-89035404D01*
X167797342Y-88919267D01*
X167848040Y-88783342D01*
X167854500Y-88723255D01*
X167854499Y-87953467D01*
X194366722Y-87953467D01*
X194376783Y-88139057D01*
X194402020Y-88229951D01*
X194426508Y-88318148D01*
X194470038Y-88400255D01*
X194513569Y-88482363D01*
X194633895Y-88624021D01*
X194781861Y-88736503D01*
X194950545Y-88814544D01*
X194950546Y-88814544D01*
X194950548Y-88814545D01*
X195132067Y-88854500D01*
X195817974Y-88854500D01*
X195821332Y-88854500D01*
X195959775Y-88839443D01*
X196135911Y-88780096D01*
X196295171Y-88684273D01*
X196430108Y-88556454D01*
X196534413Y-88402615D01*
X196603209Y-88229951D01*
X196633278Y-88046535D01*
X196623216Y-87860942D01*
X196573492Y-87681852D01*
X196486431Y-87517638D01*
X196486430Y-87517636D01*
X196366756Y-87376746D01*
X196366105Y-87375979D01*
X196362786Y-87373456D01*
X196218138Y-87263496D01*
X196049454Y-87185455D01*
X195867933Y-87145500D01*
X195178668Y-87145500D01*
X195175331Y-87145862D01*
X195175329Y-87145863D01*
X195040224Y-87160556D01*
X194864090Y-87219903D01*
X194704827Y-87315727D01*
X194569894Y-87443544D01*
X194569892Y-87443546D01*
X194531244Y-87500548D01*
X194465587Y-87597385D01*
X194408700Y-87740161D01*
X194396791Y-87770049D01*
X194368349Y-87943544D01*
X194366722Y-87953467D01*
X167854499Y-87953467D01*
X167854499Y-87376746D01*
X167848040Y-87316658D01*
X167797342Y-87180733D01*
X167710404Y-87064596D01*
X167594267Y-86977658D01*
X167594264Y-86977657D01*
X167594263Y-86977656D01*
X167458345Y-86926960D01*
X167401541Y-86920853D01*
X167401535Y-86920852D01*
X167398255Y-86920500D01*
X167394945Y-86920500D01*
X166605057Y-86920500D01*
X166605038Y-86920500D01*
X166601746Y-86920501D01*
X166598468Y-86920853D01*
X166598456Y-86920854D01*
X166543295Y-86926784D01*
X166541658Y-86926960D01*
X166405733Y-86977658D01*
X166289596Y-87064596D01*
X166217762Y-87160557D01*
X166202656Y-87180736D01*
X166151960Y-87316654D01*
X166145853Y-87373458D01*
X166145500Y-87376745D01*
X166145500Y-87380053D01*
X166145500Y-87380054D01*
X166145500Y-88719942D01*
X166145500Y-88719960D01*
X165758792Y-88719960D01*
X165814544Y-88599454D01*
X165814543Y-88599454D01*
X165814545Y-88599452D01*
X165854500Y-88417933D01*
X165854500Y-87728668D01*
X165839443Y-87590225D01*
X165780096Y-87414089D01*
X165684273Y-87254829D01*
X165684272Y-87254827D01*
X165620363Y-87187360D01*
X165556454Y-87119892D01*
X165402615Y-87015587D01*
X165229951Y-86946791D01*
X165046535Y-86916722D01*
X165046532Y-86916722D01*
X164860942Y-86926783D01*
X164681852Y-86976508D01*
X164517636Y-87063569D01*
X164375978Y-87183895D01*
X164263497Y-87331860D01*
X164245039Y-87371758D01*
X164199024Y-87424336D01*
X164131889Y-87443689D01*
X164064947Y-87423675D01*
X164019453Y-87370646D01*
X164008500Y-87319691D01*
X164008500Y-86500000D01*
X174440707Y-86500000D01*
X174459838Y-86718671D01*
X174515602Y-86926783D01*
X174516653Y-86930703D01*
X174609421Y-87129646D01*
X174735326Y-87309457D01*
X174890543Y-87464674D01*
X175070354Y-87590579D01*
X175269297Y-87683347D01*
X175481326Y-87740161D01*
X175700000Y-87759292D01*
X175918674Y-87740161D01*
X176130703Y-87683347D01*
X176329646Y-87590579D01*
X176509457Y-87464674D01*
X176664674Y-87309457D01*
X176790579Y-87129646D01*
X176883347Y-86930703D01*
X176940161Y-86718674D01*
X176959292Y-86500000D01*
X176940161Y-86281326D01*
X176883347Y-86069297D01*
X176790579Y-85870354D01*
X176664674Y-85690543D01*
X176509457Y-85535326D01*
X176459006Y-85500000D01*
X188740707Y-85500000D01*
X188759838Y-85718671D01*
X188816653Y-85930704D01*
X188827267Y-85953465D01*
X188909421Y-86129646D01*
X189035326Y-86309457D01*
X189190543Y-86464674D01*
X189370354Y-86590579D01*
X189569297Y-86683347D01*
X189781326Y-86740161D01*
X189927108Y-86752915D01*
X189999999Y-86759292D01*
X189999999Y-86759291D01*
X190000000Y-86759292D01*
X190218674Y-86740161D01*
X190430703Y-86683347D01*
X190629646Y-86590579D01*
X190809457Y-86464674D01*
X190964674Y-86309457D01*
X191090579Y-86129646D01*
X191172732Y-85953467D01*
X194366722Y-85953467D01*
X194376783Y-86139057D01*
X194402020Y-86229951D01*
X194426508Y-86318148D01*
X194449196Y-86360942D01*
X194513569Y-86482363D01*
X194633895Y-86624021D01*
X194781861Y-86736503D01*
X194950545Y-86814544D01*
X194950546Y-86814544D01*
X194950548Y-86814545D01*
X195132067Y-86854500D01*
X195817974Y-86854500D01*
X195821332Y-86854500D01*
X195959775Y-86839443D01*
X196135911Y-86780096D01*
X196295171Y-86684273D01*
X196430108Y-86556454D01*
X196534413Y-86402615D01*
X196603209Y-86229951D01*
X196633278Y-86046535D01*
X196623216Y-85860942D01*
X196573492Y-85681852D01*
X196486431Y-85517638D01*
X196486430Y-85517636D01*
X196366104Y-85375978D01*
X196218138Y-85263496D01*
X196049454Y-85185455D01*
X195867933Y-85145500D01*
X195178668Y-85145500D01*
X195175331Y-85145862D01*
X195175329Y-85145863D01*
X195040224Y-85160556D01*
X194864090Y-85219903D01*
X194704827Y-85315727D01*
X194605918Y-85409420D01*
X194569892Y-85443546D01*
X194519658Y-85517636D01*
X194465587Y-85597385D01*
X194416771Y-85719904D01*
X194396791Y-85770049D01*
X194368349Y-85943544D01*
X194366722Y-85953467D01*
X191172732Y-85953467D01*
X191183347Y-85930703D01*
X191240161Y-85718674D01*
X191259292Y-85500000D01*
X191240161Y-85281326D01*
X191183347Y-85069297D01*
X191090579Y-84870354D01*
X190964674Y-84690543D01*
X190809457Y-84535326D01*
X190629646Y-84409421D01*
X190525682Y-84360942D01*
X190430704Y-84316653D01*
X190218671Y-84259838D01*
X190000000Y-84240707D01*
X189781328Y-84259838D01*
X189569295Y-84316653D01*
X189370356Y-84409420D01*
X189370354Y-84409421D01*
X189266182Y-84482363D01*
X189190539Y-84535329D01*
X189035329Y-84690539D01*
X189035326Y-84690542D01*
X189035326Y-84690543D01*
X188972621Y-84780096D01*
X188909420Y-84870356D01*
X188816653Y-85069295D01*
X188759838Y-85281328D01*
X188740707Y-85500000D01*
X176459006Y-85500000D01*
X176329646Y-85409421D01*
X176179577Y-85339443D01*
X176130704Y-85316653D01*
X175918671Y-85259838D01*
X175699999Y-85240707D01*
X175481328Y-85259838D01*
X175269295Y-85316653D01*
X175070356Y-85409420D01*
X175070354Y-85409421D01*
X174940994Y-85500000D01*
X174890539Y-85535329D01*
X174735329Y-85690539D01*
X174735326Y-85690542D01*
X174735326Y-85690543D01*
X174616012Y-85860942D01*
X174609420Y-85870356D01*
X174516653Y-86069295D01*
X174459838Y-86281328D01*
X174440707Y-86500000D01*
X164008500Y-86500000D01*
X164008500Y-83953467D01*
X194366722Y-83953467D01*
X194376783Y-84139057D01*
X194405007Y-84240708D01*
X194426508Y-84318148D01*
X194449196Y-84360942D01*
X194513569Y-84482363D01*
X194633895Y-84624021D01*
X194781861Y-84736503D01*
X194950545Y-84814544D01*
X194950546Y-84814544D01*
X194950548Y-84814545D01*
X195132067Y-84854500D01*
X195817974Y-84854500D01*
X195821332Y-84854500D01*
X195959775Y-84839443D01*
X196135911Y-84780096D01*
X196295171Y-84684273D01*
X196430108Y-84556454D01*
X196534413Y-84402615D01*
X196603209Y-84229951D01*
X196633278Y-84046535D01*
X196623216Y-83860942D01*
X196573492Y-83681852D01*
X196486431Y-83517638D01*
X196486430Y-83517636D01*
X196366104Y-83375978D01*
X196218138Y-83263496D01*
X196049454Y-83185455D01*
X195867933Y-83145500D01*
X195178668Y-83145500D01*
X195175331Y-83145862D01*
X195175329Y-83145863D01*
X195040224Y-83160556D01*
X194864090Y-83219903D01*
X194704827Y-83315727D01*
X194569894Y-83443544D01*
X194569892Y-83443546D01*
X194519658Y-83517636D01*
X194465587Y-83597385D01*
X194416771Y-83719904D01*
X194396791Y-83770049D01*
X194368349Y-83943544D01*
X194366722Y-83953467D01*
X164008500Y-83953467D01*
X164008500Y-82954106D01*
X164028185Y-82887067D01*
X164030426Y-82883700D01*
X164083787Y-82806395D01*
X164140149Y-82657782D01*
X164159307Y-82500000D01*
X164140149Y-82342218D01*
X164083787Y-82193605D01*
X163993498Y-82062799D01*
X163874529Y-81957401D01*
X163874527Y-81957399D01*
X163867035Y-81953467D01*
X194366722Y-81953467D01*
X194376783Y-82139057D01*
X194402020Y-82229951D01*
X194426508Y-82318148D01*
X194449196Y-82360942D01*
X194513569Y-82482363D01*
X194633895Y-82624021D01*
X194781861Y-82736503D01*
X194950545Y-82814544D01*
X194950546Y-82814544D01*
X194950548Y-82814545D01*
X195132067Y-82854500D01*
X195817974Y-82854500D01*
X195821332Y-82854500D01*
X195959775Y-82839443D01*
X196135911Y-82780096D01*
X196295171Y-82684273D01*
X196430108Y-82556454D01*
X196534413Y-82402615D01*
X196603209Y-82229951D01*
X196633278Y-82046535D01*
X196623216Y-81860942D01*
X196573492Y-81681852D01*
X196486431Y-81517638D01*
X196486430Y-81517636D01*
X196366104Y-81375978D01*
X196218138Y-81263496D01*
X196049454Y-81185455D01*
X195867933Y-81145500D01*
X195178668Y-81145500D01*
X195175331Y-81145862D01*
X195175329Y-81145863D01*
X195040224Y-81160556D01*
X194864090Y-81219903D01*
X194704827Y-81315727D01*
X194576592Y-81437199D01*
X194569892Y-81443546D01*
X194519658Y-81517636D01*
X194465587Y-81597385D01*
X194416771Y-81719904D01*
X194396791Y-81770049D01*
X194368349Y-81943544D01*
X194366722Y-81953467D01*
X163867035Y-81953467D01*
X163733794Y-81883537D01*
X163656631Y-81864518D01*
X163579471Y-81845500D01*
X163420529Y-81845500D01*
X163369088Y-81858178D01*
X163266205Y-81883537D01*
X163125472Y-81957399D01*
X163006501Y-82062800D01*
X162916212Y-82193605D01*
X162859851Y-82342217D01*
X162840692Y-82500000D01*
X162859851Y-82657782D01*
X162916211Y-82806392D01*
X162916212Y-82806394D01*
X162916213Y-82806395D01*
X162969550Y-82883667D01*
X162991433Y-82950020D01*
X162991500Y-82954106D01*
X162991500Y-90545893D01*
X162971815Y-90612932D01*
X162969550Y-90616333D01*
X162916212Y-90693605D01*
X162859851Y-90842217D01*
X162840692Y-90999999D01*
X104256496Y-90999999D01*
X104280146Y-90959036D01*
X104348856Y-90760511D01*
X104350368Y-90750000D01*
X103279560Y-90750000D01*
X103318278Y-90707941D01*
X103368551Y-90593330D01*
X103378886Y-90468605D01*
X103348163Y-90347281D01*
X103284606Y-90250000D01*
X104346257Y-90250000D01*
X104319229Y-90138589D01*
X104231960Y-89947494D01*
X104110107Y-89776378D01*
X103958066Y-89631407D01*
X103781344Y-89517833D01*
X103688393Y-89480622D01*
X103633472Y-89437431D01*
X103610619Y-89371404D01*
X103627092Y-89303504D01*
X103670548Y-89259255D01*
X103795171Y-89184273D01*
X103930108Y-89056454D01*
X104034413Y-88902615D01*
X104103209Y-88729951D01*
X104133278Y-88546535D01*
X104123216Y-88360942D01*
X104073492Y-88181852D01*
X103986431Y-88017638D01*
X103986430Y-88017636D01*
X103866104Y-87875978D01*
X103718138Y-87763496D01*
X103549454Y-87685455D01*
X103367933Y-87645500D01*
X102678668Y-87645500D01*
X102675331Y-87645862D01*
X102675329Y-87645863D01*
X102540224Y-87660556D01*
X102364090Y-87719903D01*
X102204827Y-87815727D01*
X102076592Y-87937199D01*
X102069892Y-87943546D01*
X102019658Y-88017636D01*
X101965587Y-88097385D01*
X101912768Y-88229951D01*
X101896791Y-88270049D01*
X101875059Y-88402614D01*
X101866722Y-88453467D01*
X101876783Y-88639057D01*
X101898489Y-88717234D01*
X101926508Y-88818148D01*
X101945588Y-88854136D01*
X102013569Y-88982363D01*
X102133895Y-89124021D01*
X102281859Y-89236501D01*
X102311681Y-89250298D01*
X102364260Y-89296312D01*
X102383615Y-89363447D01*
X102363601Y-89430389D01*
X102316436Y-89473053D01*
X102127591Y-89570409D01*
X101962461Y-89700269D01*
X101824888Y-89859036D01*
X101719853Y-90040963D01*
X101651143Y-90239488D01*
X101649631Y-90249999D01*
X100000500Y-90249999D01*
X100000500Y-87499999D01*
X142340692Y-87499999D01*
X142359851Y-87657782D01*
X142416212Y-87806394D01*
X142416213Y-87806395D01*
X142506502Y-87937201D01*
X142597294Y-88017636D01*
X142625472Y-88042600D01*
X142632970Y-88046535D01*
X142766207Y-88116463D01*
X142920529Y-88154500D01*
X142920530Y-88154500D01*
X143079470Y-88154500D01*
X143079471Y-88154500D01*
X143233793Y-88116463D01*
X143374529Y-88042599D01*
X143493498Y-87937201D01*
X143583787Y-87806395D01*
X143640149Y-87657782D01*
X143659307Y-87500000D01*
X143640149Y-87342218D01*
X143583787Y-87193605D01*
X143530450Y-87116333D01*
X143508567Y-87049979D01*
X143508500Y-87045893D01*
X143508500Y-85954106D01*
X143528185Y-85887067D01*
X143530426Y-85883700D01*
X143583787Y-85806395D01*
X143640149Y-85657782D01*
X143659307Y-85500000D01*
X143640149Y-85342218D01*
X143583787Y-85193605D01*
X143493498Y-85062799D01*
X143374529Y-84957401D01*
X143374527Y-84957399D01*
X143233794Y-84883537D01*
X143115985Y-84854500D01*
X143079471Y-84845500D01*
X142920529Y-84845500D01*
X142884015Y-84854500D01*
X142766205Y-84883537D01*
X142625472Y-84957399D01*
X142506501Y-85062800D01*
X142416212Y-85193605D01*
X142359851Y-85342217D01*
X142340692Y-85500000D01*
X142359851Y-85657782D01*
X142416211Y-85806392D01*
X142416212Y-85806394D01*
X142416213Y-85806395D01*
X142469550Y-85883667D01*
X142491433Y-85950020D01*
X142491500Y-85954106D01*
X142491500Y-87045893D01*
X142471815Y-87112932D01*
X142469550Y-87116333D01*
X142416212Y-87193605D01*
X142359851Y-87342217D01*
X142340692Y-87499999D01*
X100000500Y-87499999D01*
X100000500Y-86453467D01*
X101866722Y-86453467D01*
X101876783Y-86639057D01*
X101898888Y-86718671D01*
X101926508Y-86818148D01*
X101937798Y-86839443D01*
X102013569Y-86982363D01*
X102133895Y-87124021D01*
X102281861Y-87236503D01*
X102450545Y-87314544D01*
X102450546Y-87314544D01*
X102450548Y-87314545D01*
X102632067Y-87354500D01*
X103317974Y-87354500D01*
X103321332Y-87354500D01*
X103459775Y-87339443D01*
X103635911Y-87280096D01*
X103795171Y-87184273D01*
X103930108Y-87056454D01*
X104034413Y-86902615D01*
X104103209Y-86729951D01*
X104133278Y-86546535D01*
X104123216Y-86360942D01*
X104073492Y-86181852D01*
X103986431Y-86017638D01*
X103986430Y-86017636D01*
X103875523Y-85887067D01*
X103866105Y-85875979D01*
X103858708Y-85870356D01*
X103718138Y-85763496D01*
X103549454Y-85685455D01*
X103367933Y-85645500D01*
X102678668Y-85645500D01*
X102675331Y-85645862D01*
X102675329Y-85645863D01*
X102540224Y-85660556D01*
X102364090Y-85719903D01*
X102204827Y-85815727D01*
X102083450Y-85930703D01*
X102069892Y-85943546D01*
X101984631Y-86069297D01*
X101965587Y-86097385D01*
X101912768Y-86229951D01*
X101896791Y-86270049D01*
X101875059Y-86402614D01*
X101866722Y-86453467D01*
X100000500Y-86453467D01*
X100000500Y-84453467D01*
X101866722Y-84453467D01*
X101876783Y-84639057D01*
X101902020Y-84729951D01*
X101926508Y-84818148D01*
X101945588Y-84854136D01*
X102013569Y-84982363D01*
X102133895Y-85124021D01*
X102281861Y-85236503D01*
X102450545Y-85314544D01*
X102450546Y-85314544D01*
X102450548Y-85314545D01*
X102632067Y-85354500D01*
X103317974Y-85354500D01*
X103321332Y-85354500D01*
X103459775Y-85339443D01*
X103635911Y-85280096D01*
X103795171Y-85184273D01*
X103930108Y-85056454D01*
X104034413Y-84902615D01*
X104103209Y-84729951D01*
X104133278Y-84546535D01*
X104123216Y-84360942D01*
X104073492Y-84181852D01*
X103986431Y-84017638D01*
X103986430Y-84017636D01*
X103866104Y-83875978D01*
X103718138Y-83763496D01*
X103549454Y-83685455D01*
X103367933Y-83645500D01*
X102678668Y-83645500D01*
X102675331Y-83645862D01*
X102675329Y-83645863D01*
X102540224Y-83660556D01*
X102364090Y-83719903D01*
X102204827Y-83815727D01*
X102069894Y-83943544D01*
X102069892Y-83943546D01*
X102019658Y-84017636D01*
X101965587Y-84097385D01*
X101908482Y-84240708D01*
X101896791Y-84270049D01*
X101875059Y-84402614D01*
X101866722Y-84453467D01*
X100000500Y-84453467D01*
X100000500Y-82453467D01*
X101866722Y-82453467D01*
X101876783Y-82639057D01*
X101902020Y-82729951D01*
X101926508Y-82818148D01*
X101937798Y-82839443D01*
X102013569Y-82982363D01*
X102133895Y-83124021D01*
X102281861Y-83236503D01*
X102450545Y-83314544D01*
X102450546Y-83314544D01*
X102450548Y-83314545D01*
X102632067Y-83354500D01*
X103317974Y-83354500D01*
X103321332Y-83354500D01*
X103459775Y-83339443D01*
X103635911Y-83280096D01*
X103795171Y-83184273D01*
X103930108Y-83056454D01*
X104034413Y-82902615D01*
X104103209Y-82729951D01*
X104133278Y-82546535D01*
X104123216Y-82360942D01*
X104073492Y-82181852D01*
X103986431Y-82017638D01*
X103986430Y-82017636D01*
X103866104Y-81875978D01*
X103718138Y-81763496D01*
X103549454Y-81685455D01*
X103367933Y-81645500D01*
X102678668Y-81645500D01*
X102675331Y-81645862D01*
X102675329Y-81645863D01*
X102540224Y-81660556D01*
X102364090Y-81719903D01*
X102204827Y-81815727D01*
X102069894Y-81943544D01*
X102069892Y-81943546D01*
X102019658Y-82017636D01*
X101965587Y-82097385D01*
X101912768Y-82229951D01*
X101896791Y-82270049D01*
X101875059Y-82402614D01*
X101866722Y-82453467D01*
X100000500Y-82453467D01*
X100000500Y-80999999D01*
X145590692Y-80999999D01*
X145609851Y-81157782D01*
X145666212Y-81306394D01*
X145666213Y-81306395D01*
X145756502Y-81437201D01*
X145847294Y-81517636D01*
X145875472Y-81542600D01*
X145979857Y-81597385D01*
X146016207Y-81616463D01*
X146170529Y-81654500D01*
X146170530Y-81654500D01*
X146329470Y-81654500D01*
X146329471Y-81654500D01*
X146483793Y-81616463D01*
X146624529Y-81542599D01*
X146743498Y-81437201D01*
X146833787Y-81306395D01*
X146890149Y-81157782D01*
X146909307Y-81000000D01*
X146909307Y-80999999D01*
X150590692Y-80999999D01*
X150609851Y-81157782D01*
X150666212Y-81306394D01*
X150666213Y-81306395D01*
X150756502Y-81437201D01*
X150847294Y-81517636D01*
X150875472Y-81542600D01*
X150979857Y-81597385D01*
X151016207Y-81616463D01*
X151170529Y-81654500D01*
X151170530Y-81654500D01*
X151329470Y-81654500D01*
X151329471Y-81654500D01*
X151483793Y-81616463D01*
X151624529Y-81542599D01*
X151743498Y-81437201D01*
X151833787Y-81306395D01*
X151890149Y-81157782D01*
X151909307Y-81000000D01*
X151890149Y-80842218D01*
X151833787Y-80693605D01*
X151780450Y-80616333D01*
X151758567Y-80549979D01*
X151758500Y-80545893D01*
X151758500Y-79953467D01*
X194366722Y-79953467D01*
X194376783Y-80139057D01*
X194402020Y-80229951D01*
X194426508Y-80318148D01*
X194470038Y-80400255D01*
X194513569Y-80482363D01*
X194633895Y-80624021D01*
X194781861Y-80736503D01*
X194950545Y-80814544D01*
X194950546Y-80814544D01*
X194950548Y-80814545D01*
X195132067Y-80854500D01*
X195817974Y-80854500D01*
X195821332Y-80854500D01*
X195959775Y-80839443D01*
X196135911Y-80780096D01*
X196295171Y-80684273D01*
X196430108Y-80556454D01*
X196534413Y-80402615D01*
X196603209Y-80229951D01*
X196633278Y-80046535D01*
X196623216Y-79860942D01*
X196573492Y-79681852D01*
X196486431Y-79517638D01*
X196486430Y-79517636D01*
X196375523Y-79387067D01*
X196366105Y-79375979D01*
X196366104Y-79375978D01*
X196218138Y-79263496D01*
X196049454Y-79185455D01*
X195867933Y-79145500D01*
X195178668Y-79145500D01*
X195175331Y-79145862D01*
X195175329Y-79145863D01*
X195040224Y-79160556D01*
X194864090Y-79219903D01*
X194704827Y-79315727D01*
X194569894Y-79443544D01*
X194569892Y-79443546D01*
X194519658Y-79517636D01*
X194465587Y-79597385D01*
X194396791Y-79770048D01*
X194366722Y-79953467D01*
X151758500Y-79953467D01*
X151758500Y-79454106D01*
X151778185Y-79387067D01*
X151780426Y-79383700D01*
X151833787Y-79306395D01*
X151890149Y-79157782D01*
X151909307Y-79000000D01*
X151890149Y-78842218D01*
X151833787Y-78693605D01*
X151743498Y-78562799D01*
X151624529Y-78457401D01*
X151624527Y-78457399D01*
X151483794Y-78383537D01*
X151406631Y-78364518D01*
X151329471Y-78345500D01*
X151170529Y-78345500D01*
X151119088Y-78358178D01*
X151016205Y-78383537D01*
X150875472Y-78457399D01*
X150756501Y-78562800D01*
X150666212Y-78693605D01*
X150609851Y-78842217D01*
X150590692Y-79000000D01*
X150609851Y-79157782D01*
X150666211Y-79306392D01*
X150666212Y-79306394D01*
X150666213Y-79306395D01*
X150719550Y-79383667D01*
X150741433Y-79450020D01*
X150741500Y-79454106D01*
X150741500Y-80545893D01*
X150721815Y-80612932D01*
X150719550Y-80616333D01*
X150666212Y-80693605D01*
X150609851Y-80842217D01*
X150590692Y-80999999D01*
X146909307Y-80999999D01*
X146890149Y-80842218D01*
X146833787Y-80693605D01*
X146780450Y-80616333D01*
X146758567Y-80549979D01*
X146758500Y-80545893D01*
X146758500Y-79454106D01*
X146778185Y-79387067D01*
X146780426Y-79383700D01*
X146833787Y-79306395D01*
X146890149Y-79157782D01*
X146909307Y-79000000D01*
X146890149Y-78842218D01*
X146833787Y-78693605D01*
X146743498Y-78562799D01*
X146624529Y-78457401D01*
X146624527Y-78457399D01*
X146483794Y-78383537D01*
X146406631Y-78364518D01*
X146329471Y-78345500D01*
X146170529Y-78345500D01*
X146119088Y-78358179D01*
X146016205Y-78383537D01*
X145875472Y-78457399D01*
X145756501Y-78562800D01*
X145666212Y-78693605D01*
X145609851Y-78842217D01*
X145590692Y-79000000D01*
X145609851Y-79157782D01*
X145666211Y-79306392D01*
X145666212Y-79306394D01*
X145666213Y-79306395D01*
X145719550Y-79383667D01*
X145741433Y-79450020D01*
X145741500Y-79454106D01*
X145741500Y-80545893D01*
X145721815Y-80612932D01*
X145719550Y-80616333D01*
X145666212Y-80693605D01*
X145609851Y-80842217D01*
X145590692Y-80999999D01*
X100000500Y-80999999D01*
X100000500Y-74750000D01*
X101625000Y-74750000D01*
X102720440Y-74750000D01*
X102681722Y-74792059D01*
X102631449Y-74906670D01*
X102621114Y-75031395D01*
X102651837Y-75152719D01*
X102715394Y-75250000D01*
X101625001Y-75250000D01*
X101625001Y-75396829D01*
X101625321Y-75403111D01*
X101635493Y-75502695D01*
X101690642Y-75669122D01*
X101782683Y-75818345D01*
X101906654Y-75942316D01*
X102055877Y-76034357D01*
X102222303Y-76089506D01*
X102321890Y-76099680D01*
X102328168Y-76099999D01*
X102749999Y-76099999D01*
X102750000Y-76099998D01*
X102750000Y-75280617D01*
X102819052Y-75334363D01*
X102937424Y-75375000D01*
X103031073Y-75375000D01*
X103123446Y-75359586D01*
X103233514Y-75300019D01*
X103250000Y-75282110D01*
X103250000Y-76099999D01*
X103671829Y-76099999D01*
X103678111Y-76099678D01*
X103777695Y-76089506D01*
X103944122Y-76034357D01*
X104093345Y-75942316D01*
X104217316Y-75818345D01*
X104309357Y-75669122D01*
X104364506Y-75502696D01*
X104374680Y-75403109D01*
X104375000Y-75396831D01*
X104375000Y-75250000D01*
X103279560Y-75250000D01*
X103318278Y-75207941D01*
X103368551Y-75093330D01*
X103376285Y-74999999D01*
X174740707Y-74999999D01*
X174759838Y-75218671D01*
X174809259Y-75403111D01*
X174816653Y-75430703D01*
X174909421Y-75629646D01*
X175035326Y-75809457D01*
X175190543Y-75964674D01*
X175370354Y-76090579D01*
X175569297Y-76183347D01*
X175781326Y-76240161D01*
X175927108Y-76252914D01*
X175999999Y-76259292D01*
X175999999Y-76259291D01*
X176000000Y-76259292D01*
X176218674Y-76240161D01*
X176430703Y-76183347D01*
X176629646Y-76090579D01*
X176759006Y-76000000D01*
X188740707Y-76000000D01*
X188759838Y-76218671D01*
X188809259Y-76403111D01*
X188816653Y-76430703D01*
X188909421Y-76629646D01*
X189035326Y-76809457D01*
X189190543Y-76964674D01*
X189370354Y-77090579D01*
X189569297Y-77183347D01*
X189781326Y-77240161D01*
X190000000Y-77259292D01*
X190218674Y-77240161D01*
X190430703Y-77183347D01*
X190629646Y-77090579D01*
X190809457Y-76964674D01*
X190964674Y-76809457D01*
X191090579Y-76629646D01*
X191183347Y-76430703D01*
X191240161Y-76218674D01*
X191259292Y-76000000D01*
X191240161Y-75781326D01*
X191231767Y-75750000D01*
X194125000Y-75750000D01*
X195220440Y-75750000D01*
X195181722Y-75792059D01*
X195131449Y-75906670D01*
X195121114Y-76031395D01*
X195151837Y-76152719D01*
X195215394Y-76250000D01*
X194125001Y-76250000D01*
X194125001Y-76396829D01*
X194125321Y-76403111D01*
X194135493Y-76502695D01*
X194190642Y-76669122D01*
X194282683Y-76818345D01*
X194406654Y-76942316D01*
X194555877Y-77034357D01*
X194697389Y-77081250D01*
X194754834Y-77121023D01*
X194781657Y-77185539D01*
X194769342Y-77254314D01*
X194722314Y-77305206D01*
X194704829Y-77315726D01*
X194569894Y-77443544D01*
X194569892Y-77443546D01*
X194519658Y-77517636D01*
X194465587Y-77597385D01*
X194396791Y-77770048D01*
X194366722Y-77953467D01*
X194376783Y-78139057D01*
X194402020Y-78229951D01*
X194426508Y-78318148D01*
X194461175Y-78383537D01*
X194513569Y-78482363D01*
X194633895Y-78624021D01*
X194781861Y-78736503D01*
X194950545Y-78814544D01*
X194950546Y-78814544D01*
X194950548Y-78814545D01*
X195132067Y-78854500D01*
X195817974Y-78854500D01*
X195821332Y-78854500D01*
X195959775Y-78839443D01*
X196135911Y-78780096D01*
X196295171Y-78684273D01*
X196430108Y-78556454D01*
X196534413Y-78402615D01*
X196603209Y-78229951D01*
X196633278Y-78046535D01*
X196623216Y-77860942D01*
X196573492Y-77681852D01*
X196486431Y-77517638D01*
X196486430Y-77517636D01*
X196366104Y-77375978D01*
X196264149Y-77298473D01*
X196222692Y-77242232D01*
X196218223Y-77172505D01*
X196252160Y-77111431D01*
X196300188Y-77082052D01*
X196444121Y-77034357D01*
X196593345Y-76942316D01*
X196717316Y-76818345D01*
X196809357Y-76669122D01*
X196864506Y-76502696D01*
X196874680Y-76403109D01*
X196875000Y-76396831D01*
X196875000Y-76250000D01*
X195779560Y-76250000D01*
X195818278Y-76207941D01*
X195868551Y-76093330D01*
X195878886Y-75968605D01*
X195848163Y-75847281D01*
X195784606Y-75750000D01*
X196874999Y-75750000D01*
X196874999Y-75603170D01*
X196874678Y-75596888D01*
X196864506Y-75497304D01*
X196809357Y-75330877D01*
X196717316Y-75181654D01*
X196593345Y-75057683D01*
X196444122Y-74965642D01*
X196277696Y-74910493D01*
X196178109Y-74900319D01*
X196171832Y-74900000D01*
X195750000Y-74900000D01*
X195750000Y-75719382D01*
X195680948Y-75665637D01*
X195562576Y-75625000D01*
X195468927Y-75625000D01*
X195376554Y-75640414D01*
X195266486Y-75699981D01*
X195250000Y-75717889D01*
X195250000Y-74900000D01*
X194828171Y-74900000D01*
X194821888Y-74900321D01*
X194722304Y-74910493D01*
X194555877Y-74965642D01*
X194406654Y-75057683D01*
X194282683Y-75181654D01*
X194190642Y-75330877D01*
X194135493Y-75497303D01*
X194125319Y-75596890D01*
X194125000Y-75603168D01*
X194125000Y-75750000D01*
X191231767Y-75750000D01*
X191183347Y-75569297D01*
X191090579Y-75370354D01*
X190964674Y-75190543D01*
X190809457Y-75035326D01*
X190629646Y-74909421D01*
X190537921Y-74866649D01*
X190430704Y-74816653D01*
X190218671Y-74759838D01*
X190000000Y-74740707D01*
X189781328Y-74759838D01*
X189569295Y-74816653D01*
X189370356Y-74909420D01*
X189370354Y-74909421D01*
X189240994Y-75000000D01*
X189190539Y-75035329D01*
X189035329Y-75190539D01*
X189035326Y-75190542D01*
X189035326Y-75190543D01*
X188934623Y-75334363D01*
X188909420Y-75370356D01*
X188816653Y-75569295D01*
X188759838Y-75781328D01*
X188740707Y-76000000D01*
X176759006Y-76000000D01*
X176809457Y-75964674D01*
X176964674Y-75809457D01*
X177090579Y-75629646D01*
X177183347Y-75430703D01*
X177240161Y-75218674D01*
X177259292Y-75000000D01*
X177240161Y-74781326D01*
X177183347Y-74569297D01*
X177090579Y-74370354D01*
X176964674Y-74190543D01*
X176809457Y-74035326D01*
X176629646Y-73909421D01*
X176479577Y-73839443D01*
X176430704Y-73816653D01*
X176218671Y-73759838D01*
X176000000Y-73740707D01*
X175781328Y-73759838D01*
X175569295Y-73816653D01*
X175370356Y-73909420D01*
X175370354Y-73909421D01*
X175290061Y-73965643D01*
X175190539Y-74035329D01*
X175035329Y-74190539D01*
X174909420Y-74370356D01*
X174816653Y-74569295D01*
X174759838Y-74781328D01*
X174740707Y-74999999D01*
X103376285Y-74999999D01*
X103378886Y-74968605D01*
X103348163Y-74847281D01*
X103284606Y-74750000D01*
X104374999Y-74750000D01*
X104374999Y-74603170D01*
X104374678Y-74596888D01*
X104364506Y-74497304D01*
X104309357Y-74330877D01*
X104217316Y-74181654D01*
X104093345Y-74057683D01*
X103944123Y-73965643D01*
X103802609Y-73918749D01*
X103745165Y-73878976D01*
X103718342Y-73814460D01*
X103730657Y-73745684D01*
X103777685Y-73694793D01*
X103795171Y-73684273D01*
X103930108Y-73556454D01*
X104034413Y-73402615D01*
X104103209Y-73229951D01*
X104133278Y-73046535D01*
X104123216Y-72860942D01*
X104073492Y-72681852D01*
X103986431Y-72517638D01*
X103986430Y-72517636D01*
X103866104Y-72375978D01*
X103718138Y-72263496D01*
X103549454Y-72185455D01*
X103367933Y-72145500D01*
X102678668Y-72145500D01*
X102675331Y-72145862D01*
X102675329Y-72145863D01*
X102540224Y-72160556D01*
X102364090Y-72219903D01*
X102204827Y-72315727D01*
X102069894Y-72443544D01*
X102069892Y-72443546D01*
X102019658Y-72517636D01*
X101965587Y-72597385D01*
X101896791Y-72770048D01*
X101866722Y-72953467D01*
X101876783Y-73139057D01*
X101902020Y-73229951D01*
X101926508Y-73318148D01*
X101970038Y-73400255D01*
X102013569Y-73482363D01*
X102133895Y-73624021D01*
X102235850Y-73701526D01*
X102277307Y-73757767D01*
X102281776Y-73827494D01*
X102247839Y-73888568D01*
X102199812Y-73917947D01*
X102055877Y-73965642D01*
X101906654Y-74057683D01*
X101782683Y-74181654D01*
X101690642Y-74330877D01*
X101635493Y-74497303D01*
X101625319Y-74596890D01*
X101625000Y-74603168D01*
X101625000Y-74750000D01*
X100000500Y-74750000D01*
X100000500Y-68749999D01*
X101649631Y-68749999D01*
X101649632Y-68750000D01*
X102720440Y-68750000D01*
X102681722Y-68792059D01*
X102631449Y-68906670D01*
X102621114Y-69031395D01*
X102651837Y-69152719D01*
X102715394Y-69250000D01*
X101653742Y-69250000D01*
X101680770Y-69361410D01*
X101768039Y-69552505D01*
X101889892Y-69723621D01*
X102041933Y-69868592D01*
X102218657Y-69982166D01*
X102311605Y-70019377D01*
X102366527Y-70062567D01*
X102389380Y-70128594D01*
X102372908Y-70196494D01*
X102329449Y-70240745D01*
X102204829Y-70315726D01*
X102069894Y-70443544D01*
X102069892Y-70443546D01*
X102019658Y-70517636D01*
X101965587Y-70597385D01*
X101896791Y-70770048D01*
X101866722Y-70953467D01*
X101876783Y-71139057D01*
X101902020Y-71229951D01*
X101926508Y-71318148D01*
X101970038Y-71400255D01*
X102013569Y-71482363D01*
X102133895Y-71624021D01*
X102281861Y-71736503D01*
X102450545Y-71814544D01*
X102450546Y-71814544D01*
X102450548Y-71814545D01*
X102632067Y-71854500D01*
X103317974Y-71854500D01*
X103321332Y-71854500D01*
X103459775Y-71839443D01*
X103635911Y-71780096D01*
X103795171Y-71684273D01*
X103930108Y-71556454D01*
X104034413Y-71402615D01*
X104103209Y-71229951D01*
X104133278Y-71046535D01*
X104123216Y-70860942D01*
X104073492Y-70681852D01*
X103986431Y-70517638D01*
X103986430Y-70517636D01*
X103866104Y-70375978D01*
X103718138Y-70263496D01*
X103688317Y-70249700D01*
X103635739Y-70203686D01*
X103616385Y-70136550D01*
X103636399Y-70069609D01*
X103683563Y-70026945D01*
X103872412Y-69929587D01*
X104037538Y-69799730D01*
X104175111Y-69640963D01*
X104280146Y-69459036D01*
X104348856Y-69260511D01*
X104350368Y-69250000D01*
X103279560Y-69250000D01*
X103318278Y-69207941D01*
X103368551Y-69093330D01*
X103378886Y-68968605D01*
X103348163Y-68847281D01*
X103284606Y-68750000D01*
X104346257Y-68750000D01*
X104319229Y-68638589D01*
X104231960Y-68447494D01*
X104110107Y-68276378D01*
X103958066Y-68131407D01*
X103781344Y-68017833D01*
X103688393Y-67980622D01*
X103633472Y-67937431D01*
X103610619Y-67871404D01*
X103627092Y-67803504D01*
X103670548Y-67759255D01*
X103795171Y-67684273D01*
X103930108Y-67556454D01*
X104034413Y-67402615D01*
X104103209Y-67229951D01*
X104133278Y-67046535D01*
X104123216Y-66860942D01*
X104073492Y-66681852D01*
X103986431Y-66517638D01*
X103986430Y-66517636D01*
X103866104Y-66375978D01*
X103718138Y-66263496D01*
X103549454Y-66185455D01*
X103367933Y-66145500D01*
X102678668Y-66145500D01*
X102675331Y-66145862D01*
X102675329Y-66145863D01*
X102540224Y-66160556D01*
X102364090Y-66219903D01*
X102204827Y-66315727D01*
X102069894Y-66443544D01*
X102069892Y-66443546D01*
X102019658Y-66517636D01*
X101965587Y-66597385D01*
X101896791Y-66770048D01*
X101866722Y-66953467D01*
X101876783Y-67139057D01*
X101902020Y-67229951D01*
X101926508Y-67318148D01*
X101970038Y-67400255D01*
X102013569Y-67482363D01*
X102133895Y-67624021D01*
X102281859Y-67736501D01*
X102311681Y-67750298D01*
X102364260Y-67796312D01*
X102383615Y-67863447D01*
X102363601Y-67930389D01*
X102316436Y-67973053D01*
X102127591Y-68070409D01*
X101962461Y-68200269D01*
X101824888Y-68359036D01*
X101719853Y-68540963D01*
X101651143Y-68739488D01*
X101649631Y-68749999D01*
X100000500Y-68749999D01*
X100000500Y-64953467D01*
X101866722Y-64953467D01*
X101876783Y-65139057D01*
X101881071Y-65154500D01*
X101926508Y-65318148D01*
X101970038Y-65400255D01*
X102013569Y-65482363D01*
X102133895Y-65624021D01*
X102281861Y-65736503D01*
X102450545Y-65814544D01*
X102450546Y-65814544D01*
X102450548Y-65814545D01*
X102632067Y-65854500D01*
X103317974Y-65854500D01*
X103321332Y-65854500D01*
X103459775Y-65839443D01*
X103635911Y-65780096D01*
X103795171Y-65684273D01*
X103930108Y-65556454D01*
X104034413Y-65402615D01*
X104066799Y-65321332D01*
X164145500Y-65321332D01*
X164145862Y-65324669D01*
X164145863Y-65324670D01*
X164160556Y-65459775D01*
X164219903Y-65635909D01*
X164315727Y-65795172D01*
X164371926Y-65854500D01*
X164443546Y-65930108D01*
X164597385Y-66034413D01*
X164770049Y-66103209D01*
X164953465Y-66133278D01*
X165139058Y-66123216D01*
X165318148Y-66073492D01*
X165482362Y-65986431D01*
X165624021Y-65866105D01*
X165736502Y-65718139D01*
X165736501Y-65718139D01*
X165736503Y-65718138D01*
X165758792Y-65669960D01*
X166145500Y-65669960D01*
X166145501Y-65673254D01*
X166145853Y-65676532D01*
X166145854Y-65676543D01*
X166146685Y-65684272D01*
X166151960Y-65733342D01*
X166202658Y-65869267D01*
X166289596Y-65985404D01*
X166405733Y-66072342D01*
X166432202Y-66082214D01*
X166541654Y-66123039D01*
X166541655Y-66123039D01*
X166541658Y-66123040D01*
X166601745Y-66129500D01*
X167398254Y-66129499D01*
X167458342Y-66123040D01*
X167594267Y-66072342D01*
X167710404Y-65985404D01*
X167797342Y-65869267D01*
X167848040Y-65733342D01*
X167854500Y-65673255D01*
X167854499Y-64326746D01*
X167848040Y-64266658D01*
X167797342Y-64130733D01*
X167710404Y-64014596D01*
X167594267Y-63927658D01*
X167594264Y-63927657D01*
X167594263Y-63927656D01*
X167458345Y-63876960D01*
X167401541Y-63870853D01*
X167401535Y-63870852D01*
X167398255Y-63870500D01*
X167394945Y-63870500D01*
X166605057Y-63870500D01*
X166605038Y-63870500D01*
X166601746Y-63870501D01*
X166598468Y-63870853D01*
X166598456Y-63870854D01*
X166543295Y-63876784D01*
X166541658Y-63876960D01*
X166405733Y-63927658D01*
X166289596Y-64014596D01*
X166215984Y-64112932D01*
X166202656Y-64130736D01*
X166151960Y-64266654D01*
X166145853Y-64323458D01*
X166145500Y-64326745D01*
X166145500Y-64330053D01*
X166145500Y-64330054D01*
X166145500Y-65669942D01*
X166145500Y-65669960D01*
X165758792Y-65669960D01*
X165811305Y-65556455D01*
X165814545Y-65549452D01*
X165854500Y-65367933D01*
X165854500Y-64678668D01*
X165839443Y-64540225D01*
X165780096Y-64364089D01*
X165684273Y-64204829D01*
X165684272Y-64204827D01*
X165600445Y-64116333D01*
X165556454Y-64069892D01*
X165402615Y-63965587D01*
X165229951Y-63896791D01*
X165046535Y-63866722D01*
X165046532Y-63866722D01*
X164860942Y-63876783D01*
X164681852Y-63926508D01*
X164517636Y-64013569D01*
X164375978Y-64133895D01*
X164263496Y-64281861D01*
X164185455Y-64450545D01*
X164153134Y-64597385D01*
X164145500Y-64632067D01*
X164145500Y-65321332D01*
X104066799Y-65321332D01*
X104103209Y-65229951D01*
X104133278Y-65046535D01*
X104123216Y-64860942D01*
X104073492Y-64681852D01*
X103986431Y-64517638D01*
X103986430Y-64517636D01*
X103971450Y-64500000D01*
X143340692Y-64500000D01*
X143359851Y-64657782D01*
X143416212Y-64806394D01*
X143416213Y-64806395D01*
X143506502Y-64937201D01*
X143614421Y-65032810D01*
X143625472Y-65042600D01*
X143632970Y-65046535D01*
X143766207Y-65116463D01*
X143920529Y-65154500D01*
X143920530Y-65154500D01*
X144079470Y-65154500D01*
X144079471Y-65154500D01*
X144233793Y-65116463D01*
X144374529Y-65042599D01*
X144493498Y-64937201D01*
X144583787Y-64806395D01*
X144640149Y-64657782D01*
X144659307Y-64500000D01*
X144640149Y-64342218D01*
X144583787Y-64193605D01*
X144530450Y-64116333D01*
X144508567Y-64049979D01*
X144508500Y-64045893D01*
X144508500Y-62954106D01*
X144528185Y-62887067D01*
X144530426Y-62883700D01*
X144583787Y-62806395D01*
X144640149Y-62657782D01*
X144659307Y-62500000D01*
X144640149Y-62342218D01*
X144583787Y-62193605D01*
X144493498Y-62062799D01*
X144374529Y-61957401D01*
X144374527Y-61957399D01*
X144233794Y-61883537D01*
X144115985Y-61854500D01*
X144079471Y-61845500D01*
X143920529Y-61845500D01*
X143884015Y-61854500D01*
X143766205Y-61883537D01*
X143625472Y-61957399D01*
X143506501Y-62062800D01*
X143416212Y-62193605D01*
X143359851Y-62342217D01*
X143340692Y-62500000D01*
X143359851Y-62657782D01*
X143416211Y-62806392D01*
X143416212Y-62806394D01*
X143416213Y-62806395D01*
X143469550Y-62883667D01*
X143491433Y-62950020D01*
X143491500Y-62954106D01*
X143491500Y-64045893D01*
X143471815Y-64112932D01*
X143469550Y-64116333D01*
X143416212Y-64193605D01*
X143359851Y-64342217D01*
X143340692Y-64500000D01*
X103971450Y-64500000D01*
X103866104Y-64375978D01*
X103718138Y-64263496D01*
X103549454Y-64185455D01*
X103367933Y-64145500D01*
X102678668Y-64145500D01*
X102675331Y-64145862D01*
X102675329Y-64145863D01*
X102540224Y-64160556D01*
X102364090Y-64219903D01*
X102204827Y-64315727D01*
X102069894Y-64443544D01*
X102069892Y-64443546D01*
X101965587Y-64597384D01*
X101965587Y-64597385D01*
X101941523Y-64657782D01*
X101896791Y-64770049D01*
X101869389Y-64937201D01*
X101866722Y-64953467D01*
X100000500Y-64953467D01*
X100000500Y-62953467D01*
X101866722Y-62953467D01*
X101876783Y-63139057D01*
X101902020Y-63229951D01*
X101926508Y-63318148D01*
X101970038Y-63400255D01*
X102013569Y-63482363D01*
X102133895Y-63624021D01*
X102281861Y-63736503D01*
X102450545Y-63814544D01*
X102450546Y-63814544D01*
X102450548Y-63814545D01*
X102632067Y-63854500D01*
X103317974Y-63854500D01*
X103321332Y-63854500D01*
X103459775Y-63839443D01*
X103635911Y-63780096D01*
X103795171Y-63684273D01*
X103930108Y-63556454D01*
X104034413Y-63402615D01*
X104103209Y-63229951D01*
X104133278Y-63046535D01*
X104123216Y-62860942D01*
X104073492Y-62681852D01*
X103986431Y-62517638D01*
X103986430Y-62517636D01*
X103866104Y-62375978D01*
X103718138Y-62263496D01*
X103549454Y-62185455D01*
X103367933Y-62145500D01*
X102678668Y-62145500D01*
X102675331Y-62145862D01*
X102675329Y-62145863D01*
X102540224Y-62160556D01*
X102364090Y-62219903D01*
X102204827Y-62315727D01*
X102069894Y-62443544D01*
X102069892Y-62443546D01*
X102019658Y-62517636D01*
X101965587Y-62597385D01*
X101896791Y-62770048D01*
X101866722Y-62953467D01*
X100000500Y-62953467D01*
X100000500Y-60953467D01*
X101866722Y-60953467D01*
X101876783Y-61139057D01*
X101902020Y-61229951D01*
X101926508Y-61318148D01*
X101970038Y-61400255D01*
X102013569Y-61482363D01*
X102133895Y-61624021D01*
X102281861Y-61736503D01*
X102450545Y-61814544D01*
X102450546Y-61814544D01*
X102450548Y-61814545D01*
X102632067Y-61854500D01*
X103317974Y-61854500D01*
X103321332Y-61854500D01*
X103459775Y-61839443D01*
X103635911Y-61780096D01*
X103795171Y-61684273D01*
X103930108Y-61556454D01*
X104034413Y-61402615D01*
X104103209Y-61229951D01*
X104133278Y-61046535D01*
X104123216Y-60860942D01*
X104073492Y-60681852D01*
X103986431Y-60517638D01*
X103986430Y-60517636D01*
X103866104Y-60375978D01*
X103718138Y-60263496D01*
X103549454Y-60185455D01*
X103367933Y-60145500D01*
X102678668Y-60145500D01*
X102675331Y-60145862D01*
X102675329Y-60145863D01*
X102540224Y-60160556D01*
X102364090Y-60219903D01*
X102204827Y-60315727D01*
X102069894Y-60443544D01*
X102069892Y-60443546D01*
X102019658Y-60517636D01*
X101965587Y-60597385D01*
X101896791Y-60770048D01*
X101866722Y-60953467D01*
X100000500Y-60953467D01*
X100000500Y-50124500D01*
X100020185Y-50057461D01*
X100072989Y-50011706D01*
X100124500Y-50000500D01*
X199875500Y-50000500D01*
X199942539Y-50020185D01*
G37*
%TD.AperFunction*%
%TD*%
M02*
