%TF.GenerationSoftware,KiCad,Pcbnew,7.0.2*%
%TF.CreationDate,2023-05-29T18:08:28-04:00*%
%TF.ProjectId,amplifier,616d706c-6966-4696-9572-2e6b69636164,rev?*%
%TF.SameCoordinates,Original*%
%TF.FileFunction,Legend,Bot*%
%TF.FilePolarity,Positive*%
%FSLAX46Y46*%
G04 Gerber Fmt 4.6, Leading zero omitted, Abs format (unit mm)*
G04 Created by KiCad (PCBNEW 7.0.2) date 2023-05-29 18:08:28*
%MOMM*%
%LPD*%
G01*
G04 APERTURE LIST*
%ADD10C,0.150000*%
%ADD11C,0.120000*%
G04 APERTURE END LIST*
D10*
%TO.C,BT1*%
X181285714Y-92988809D02*
X181142857Y-93036428D01*
X181142857Y-93036428D02*
X181095238Y-93084047D01*
X181095238Y-93084047D02*
X181047619Y-93179285D01*
X181047619Y-93179285D02*
X181047619Y-93322142D01*
X181047619Y-93322142D02*
X181095238Y-93417380D01*
X181095238Y-93417380D02*
X181142857Y-93465000D01*
X181142857Y-93465000D02*
X181238095Y-93512619D01*
X181238095Y-93512619D02*
X181619047Y-93512619D01*
X181619047Y-93512619D02*
X181619047Y-92512619D01*
X181619047Y-92512619D02*
X181285714Y-92512619D01*
X181285714Y-92512619D02*
X181190476Y-92560238D01*
X181190476Y-92560238D02*
X181142857Y-92607857D01*
X181142857Y-92607857D02*
X181095238Y-92703095D01*
X181095238Y-92703095D02*
X181095238Y-92798333D01*
X181095238Y-92798333D02*
X181142857Y-92893571D01*
X181142857Y-92893571D02*
X181190476Y-92941190D01*
X181190476Y-92941190D02*
X181285714Y-92988809D01*
X181285714Y-92988809D02*
X181619047Y-92988809D01*
X180761904Y-92512619D02*
X180190476Y-92512619D01*
X180476190Y-93512619D02*
X180476190Y-92512619D01*
X179333333Y-93512619D02*
X179904761Y-93512619D01*
X179619047Y-93512619D02*
X179619047Y-92512619D01*
X179619047Y-92512619D02*
X179714285Y-92655476D01*
X179714285Y-92655476D02*
X179809523Y-92750714D01*
X179809523Y-92750714D02*
X179904761Y-92798333D01*
%TO.C,BT2*%
X181285714Y-105838809D02*
X181142857Y-105886428D01*
X181142857Y-105886428D02*
X181095238Y-105934047D01*
X181095238Y-105934047D02*
X181047619Y-106029285D01*
X181047619Y-106029285D02*
X181047619Y-106172142D01*
X181047619Y-106172142D02*
X181095238Y-106267380D01*
X181095238Y-106267380D02*
X181142857Y-106315000D01*
X181142857Y-106315000D02*
X181238095Y-106362619D01*
X181238095Y-106362619D02*
X181619047Y-106362619D01*
X181619047Y-106362619D02*
X181619047Y-105362619D01*
X181619047Y-105362619D02*
X181285714Y-105362619D01*
X181285714Y-105362619D02*
X181190476Y-105410238D01*
X181190476Y-105410238D02*
X181142857Y-105457857D01*
X181142857Y-105457857D02*
X181095238Y-105553095D01*
X181095238Y-105553095D02*
X181095238Y-105648333D01*
X181095238Y-105648333D02*
X181142857Y-105743571D01*
X181142857Y-105743571D02*
X181190476Y-105791190D01*
X181190476Y-105791190D02*
X181285714Y-105838809D01*
X181285714Y-105838809D02*
X181619047Y-105838809D01*
X180761904Y-105362619D02*
X180190476Y-105362619D01*
X180476190Y-106362619D02*
X180476190Y-105362619D01*
X179904761Y-105457857D02*
X179857142Y-105410238D01*
X179857142Y-105410238D02*
X179761904Y-105362619D01*
X179761904Y-105362619D02*
X179523809Y-105362619D01*
X179523809Y-105362619D02*
X179428571Y-105410238D01*
X179428571Y-105410238D02*
X179380952Y-105457857D01*
X179380952Y-105457857D02*
X179333333Y-105553095D01*
X179333333Y-105553095D02*
X179333333Y-105648333D01*
X179333333Y-105648333D02*
X179380952Y-105791190D01*
X179380952Y-105791190D02*
X179952380Y-106362619D01*
X179952380Y-106362619D02*
X179333333Y-106362619D01*
D11*
%TO.C,BT1*%
X183860000Y-93840000D02*
X183860000Y-95090000D01*
X183560000Y-98860000D02*
X177440000Y-98860000D01*
X183560000Y-96750000D02*
X182950000Y-96750000D01*
X183560000Y-95450000D02*
X182950000Y-95450000D01*
X183560000Y-94140000D02*
X183560000Y-98860000D01*
X182950000Y-98250000D02*
X178050000Y-98250000D01*
X182950000Y-94750000D02*
X182950000Y-98250000D01*
X182610000Y-93840000D02*
X183860000Y-93840000D01*
X182100000Y-93940000D02*
X182100000Y-94140000D01*
X181800000Y-94140000D02*
X181800000Y-93940000D01*
X181800000Y-94040000D02*
X182100000Y-94040000D01*
X181800000Y-93940000D02*
X182100000Y-93940000D01*
X181000000Y-94750000D02*
X182950000Y-94750000D01*
X181000000Y-94140000D02*
X181000000Y-94750000D01*
X180600000Y-98250000D02*
X180600000Y-97750000D01*
X180600000Y-97750000D02*
X180400000Y-97750000D01*
X180500000Y-98250000D02*
X180500000Y-97750000D01*
X180400000Y-97750000D02*
X180400000Y-98250000D01*
X180000000Y-94750000D02*
X180000000Y-94140000D01*
X178050000Y-98250000D02*
X178050000Y-94750000D01*
X178050000Y-94750000D02*
X180000000Y-94750000D01*
X177440000Y-98860000D02*
X177440000Y-94140000D01*
X177440000Y-96750000D02*
X178050000Y-96750000D01*
X177440000Y-95450000D02*
X178050000Y-95450000D01*
X177440000Y-94140000D02*
X183560000Y-94140000D01*
%TO.C,BT2*%
X177140000Y-105110000D02*
X177140000Y-103860000D01*
X177440000Y-100090000D02*
X183560000Y-100090000D01*
X177440000Y-102200000D02*
X178050000Y-102200000D01*
X177440000Y-103500000D02*
X178050000Y-103500000D01*
X177440000Y-104810000D02*
X177440000Y-100090000D01*
X178050000Y-100700000D02*
X182950000Y-100700000D01*
X178050000Y-104200000D02*
X178050000Y-100700000D01*
X178390000Y-105110000D02*
X177140000Y-105110000D01*
X178900000Y-105010000D02*
X178900000Y-104810000D01*
X179200000Y-104810000D02*
X179200000Y-105010000D01*
X179200000Y-104910000D02*
X178900000Y-104910000D01*
X179200000Y-105010000D02*
X178900000Y-105010000D01*
X180000000Y-104200000D02*
X178050000Y-104200000D01*
X180000000Y-104810000D02*
X180000000Y-104200000D01*
X180400000Y-100700000D02*
X180400000Y-101200000D01*
X180400000Y-101200000D02*
X180600000Y-101200000D01*
X180500000Y-100700000D02*
X180500000Y-101200000D01*
X180600000Y-101200000D02*
X180600000Y-100700000D01*
X181000000Y-104200000D02*
X181000000Y-104810000D01*
X182950000Y-100700000D02*
X182950000Y-104200000D01*
X182950000Y-104200000D02*
X181000000Y-104200000D01*
X183560000Y-100090000D02*
X183560000Y-104810000D01*
X183560000Y-102200000D02*
X182950000Y-102200000D01*
X183560000Y-103500000D02*
X182950000Y-103500000D01*
X183560000Y-104810000D02*
X177440000Y-104810000D01*
%TD*%
M02*
