%TF.GenerationSoftware,KiCad,Pcbnew,7.0.2*%
%TF.CreationDate,2023-05-29T18:08:28-04:00*%
%TF.ProjectId,amplifier,616d706c-6966-4696-9572-2e6b69636164,rev?*%
%TF.SameCoordinates,Original*%
%TF.FileFunction,Soldermask,Bot*%
%TF.FilePolarity,Negative*%
%FSLAX46Y46*%
G04 Gerber Fmt 4.6, Leading zero omitted, Abs format (unit mm)*
G04 Created by KiCad (PCBNEW 7.0.2) date 2023-05-29 18:08:28*
%MOMM*%
%LPD*%
G01*
G04 APERTURE LIST*
G04 Aperture macros list*
%AMRoundRect*
0 Rectangle with rounded corners*
0 $1 Rounding radius*
0 $2 $3 $4 $5 $6 $7 $8 $9 X,Y pos of 4 corners*
0 Add a 4 corners polygon primitive as box body*
4,1,4,$2,$3,$4,$5,$6,$7,$8,$9,$2,$3,0*
0 Add four circle primitives for the rounded corners*
1,1,$1+$1,$2,$3*
1,1,$1+$1,$4,$5*
1,1,$1+$1,$6,$7*
1,1,$1+$1,$8,$9*
0 Add four rect primitives between the rounded corners*
20,1,$1+$1,$2,$3,$4,$5,0*
20,1,$1+$1,$4,$5,$6,$7,0*
20,1,$1+$1,$6,$7,$8,$9,0*
20,1,$1+$1,$8,$9,$2,$3,0*%
G04 Aperture macros list end*
%ADD10C,3.075000*%
%ADD11RoundRect,0.250000X0.350000X0.625000X-0.350000X0.625000X-0.350000X-0.625000X0.350000X-0.625000X0*%
%ADD12O,1.200000X1.750000*%
%ADD13RoundRect,0.250000X-0.625000X0.350000X-0.625000X-0.350000X0.625000X-0.350000X0.625000X0.350000X0*%
%ADD14O,1.750000X1.200000*%
%ADD15RoundRect,0.250000X0.625000X-0.350000X0.625000X0.350000X-0.625000X0.350000X-0.625000X-0.350000X0*%
%ADD16C,2.000000*%
%ADD17R,1.700000X1.700000*%
%ADD18O,1.700000X1.700000*%
%ADD19RoundRect,0.250000X-0.350000X-0.625000X0.350000X-0.625000X0.350000X0.625000X-0.350000X0.625000X0*%
G04 APERTURE END LIST*
D10*
X106537500Y-55000000D02*
G75*
G03*
X106537500Y-55000000I-1537500J0D01*
G01*
X196537500Y-55000000D02*
G75*
G03*
X196537500Y-55000000I-1537500J0D01*
G01*
X106537500Y-145000000D02*
G75*
G03*
X106537500Y-145000000I-1537500J0D01*
G01*
X196537500Y-145000000D02*
G75*
G03*
X196537500Y-145000000I-1537500J0D01*
G01*
D11*
%TO.C,J5*%
X167000000Y-65000000D03*
D12*
X165000000Y-65000000D03*
%TD*%
D13*
%TO.C,J4*%
X195500000Y-100500000D03*
D14*
X195500000Y-102500000D03*
X195500000Y-104500000D03*
X195500000Y-106500000D03*
X195500000Y-108500000D03*
X195500000Y-110500000D03*
X195500000Y-112500000D03*
X195500000Y-114500000D03*
%TD*%
D13*
%TO.C,J7*%
X195500000Y-76000000D03*
D14*
X195500000Y-78000000D03*
X195500000Y-80000000D03*
X195500000Y-82000000D03*
X195500000Y-84000000D03*
X195500000Y-86000000D03*
X195500000Y-88000000D03*
X195500000Y-90000000D03*
%TD*%
D15*
%TO.C,J1*%
X103000000Y-75000000D03*
D14*
X103000000Y-73000000D03*
X103000000Y-71000000D03*
X103000000Y-69000000D03*
X103000000Y-67000000D03*
X103000000Y-65000000D03*
X103000000Y-63000000D03*
X103000000Y-61000000D03*
%TD*%
D16*
%TO.C,TP5*%
X179000000Y-112500000D03*
%TD*%
D11*
%TO.C,J6*%
X167000000Y-88050000D03*
D12*
X165000000Y-88050000D03*
%TD*%
D16*
%TO.C,TP1*%
X176000000Y-75000000D03*
%TD*%
%TO.C,TP8*%
X111000000Y-130000000D03*
%TD*%
%TO.C,TP2*%
X190000000Y-76000000D03*
%TD*%
%TO.C,TP4*%
X190000000Y-85500000D03*
%TD*%
%TO.C,TP3*%
X175700000Y-86500000D03*
%TD*%
%TO.C,TP7*%
X190000000Y-100500000D03*
%TD*%
D17*
%TO.C,J3*%
X174500000Y-97370000D03*
D18*
X174500000Y-99910000D03*
X174500000Y-102450000D03*
%TD*%
D16*
%TO.C,TP6*%
X190000000Y-93500000D03*
%TD*%
D15*
%TO.C,J2*%
X103000000Y-96500000D03*
D14*
X103000000Y-94500000D03*
X103000000Y-92500000D03*
X103000000Y-90500000D03*
X103000000Y-88500000D03*
X103000000Y-86500000D03*
X103000000Y-84500000D03*
X103000000Y-82500000D03*
%TD*%
D11*
%TO.C,BT1*%
X181500000Y-95950000D03*
D12*
X179500000Y-95950000D03*
%TD*%
D19*
%TO.C,BT2*%
X179500000Y-103000000D03*
D12*
X181500000Y-103000000D03*
%TD*%
M02*
